<?xml version="1.0" encoding="UTF-8"?>
<!DOCTYPE svg PUBLIC "-//W3C//DTD SVG 1.1//EN" "http://www.w3.org/Graphics/SVG/1.1/DTD/svg11.dtd">
<svg version="1.1" id="Layer_1" xmlns="http://www.w3.org/2000/svg" xmlns:xlink="http://www.w3.org/1999/xlink" x="0px" y="0px" width="32px" height="32px" viewBox="0 0 32 32" enable-background="new 0 0 32 32" xml:space="preserve">
  <g id="icon">
    <path d="M24.3816,28.5H2c-0.2761,0,-0.5,-0.2239,-0.5,-0.5V6.5h27v17.8816l-1.8652,-1.8652c0.7985,-1.5968,1.1262,-3.4171,0.9263,-5.2063c-0.2334,-2.0884,-1.1823,-4.0591,-2.6721,-5.5489c-1.7614,-1.7613,-4.102,-2.7313,-6.5908,-2.7313c-2.4826,0,-4.8157,0.966,-6.5697,2.7199c-1.7563,1.7564,-2.7223,4.0928,-2.7198,6.5788c0.0024,2.4853,0.9725,4.8227,2.7313,6.5816c1.7604,1.7604,4.0999,2.7299,6.5875,2.7299c1.4662,0,2.9017,-0.3431,4.1962,-0.9979L24.3816,28.5zM14.755,14.7533c-1.9691,1.969,-1.9691,5.1729,0,7.142c0.9538,0.9539,2.222,1.4792,3.571,1.4792c1.3489,0,2.6171,-0.5253,3.571,-1.4792c0.9539,-0.9538,1.4792,-2.222,1.4792,-3.571c0,-1.3489,-0.5253,-2.6171,-1.4792,-3.571s-2.2221,-1.4792,-3.571,-1.4792C16.977,13.2741,15.7088,13.7994,14.755,14.7533z" fill="#FFFFFF"/>
    <path d="M23.8816,28H2V7h26l0.0005,16.8822l0.9995,0.9994V6H1v22c0,0.5514,0.4486,1,1,1h22.8816L23.8816,28z" fill="#6D6E71"/>
    <path d="M29,7H1V2.4c0,-0.7732,0.6268,-1.4,1.4,-1.4h25.2c0.7732,0,1.4,0.6268,1.4,1.4V7z" fill="#3E79B4"/>
    <path d="M13.2898,18c0.0215,-0.337,0.0767,-0.672,0.1653,-1h9.7452c0.0876,0.3243,0.143,0.6588,0.1645,1H13.2898zM22.6095,21c0.1979,-0.3155,0.36,-0.6503,0.4826,-1h-9.5297c0.1213,0.3465,0.2827,0.6817,0.4817,1H22.6095zM20.2403,23h-3.8287c0.5996,0.2454,1.247,0.3745,1.9144,0.3745C18.9933,23.3745,19.6408,23.2454,20.2403,23zM22.1263,15c-0.0738,-0.0841,-0.1495,-0.1669,-0.2293,-0.2467c-0.2925,-0.2925,-0.6147,-0.5442,-0.9595,-0.7533h-5.223c-0.3448,0.2091,-0.6671,0.4608,-0.9595,0.7533c-0.08,0.08,-0.1556,0.1628,-0.2291,0.2467H22.1263zM10.2681,23H5.5c-0.2761,0,-0.5,0.2239,-0.5,0.5s0.2239,0.5,0.5,0.5h5.4424C10.6951,23.6798,10.4699,23.3461,10.2681,23zM5.5,21h3.8992c-0.0979,-0.3275,-0.1762,-0.6615,-0.2376,-1H5.5c-0.2761,0,-0.5,0.2239,-0.5,0.5S5.2239,21,5.5,21zM5.5,12h5.9901c0.0783,-0.0842,0.1566,-0.1685,0.2383,-0.2502c0.2695,-0.2695,0.5543,-0.5181,0.8496,-0.7498H5.5c-0.2761,0,-0.5,0.2239,-0.5,0.5S5.2239,12,5.5,12zM5.5,18h3.5163c0.0113,-0.3368,0.0392,-0.6706,0.0857,-1H5.5c-0.2761,0,-0.5,0.2239,-0.5,0.5S5.2239,18,5.5,18zM5.5,15h4.1188c0.1304,-0.3417,0.2798,-0.6759,0.4503,-1H5.5c-0.2761,0,-0.5,0.2239,-0.5,0.5S5.2239,15,5.5,15z" fill="#B4B4B5"/>
    <path d="M12.4356,12.4569c-3.2404,3.2404,-3.2353,8.4994,0.0115,11.7462c2.7841,2.7841,7.0467,3.1823,10.2485,1.1967l5.3202,5.3202c0.3734,0.3734,0.9787,0.3734,1.3521,0l1.3521,-1.3521c0.3734,-0.3734,0.3734,-0.9787,0,-1.3521l-5.3251,-5.3251c1.9672,-3.1988,1.5635,-7.4458,-1.2131,-10.2224C20.935,9.2216,15.6761,9.2164,12.4356,12.4569zM22.6041,14.0461c2.3627,2.3627,2.3627,6.1935,0,8.5563c-2.3627,2.3627,-6.1935,2.3627,-8.5563,0c-2.3627,-2.3627,-2.3627,-6.1935,0,-8.5563C16.4106,11.6834,20.2414,11.6834,22.6041,14.0461z" fill-rule="evenodd" fill="#3E79B4"/>
  </g>
</svg>
