<?xml version="1.0" encoding="UTF-8"?>
<!DOCTYPE svg PUBLIC "-//W3C//DTD SVG 1.1//EN" "http://www.w3.org/Graphics/SVG/1.1/DTD/svg11.dtd">
<svg version="1.1" id="Layer_1" xmlns="http://www.w3.org/2000/svg" xmlns:xlink="http://www.w3.org/1999/xlink" x="0px" y="0px" width="32px" height="32px" viewBox="0 0 32 32" enable-background="new 0 0 32 32" xml:space="preserve">
  <g id="main">
    <g id="icon">
      <path d="M0.5,29L0.5393,29.19L0.6465,29.35L0.8055,29.46L1,29.5L29,29.5L29.19,29.46L29.35,29.35L29.46,29.19L29.5,29L29.5,14.27L29.38,14.28L29.03,14.24L28.69,14.14L28.39,13.97L28.11,13.74L24.3,9.778L24.13,10.23L23.83,10.68L23.02,11.63L22.68,11.96L22.42,12.16L22.07,12.46L21.57,13.05L21.25,13.52L21.07,13.79L20.84,14.05L20.53,14.25L20.12,14.32L19.83,14.28L19.48,14.13L19.08,13.86L18.63,13.48L18.14,13L17.52,12.26L17.18,11.74L17.03,11.4L17,11.2L17.03,10.77L17.21,10.43L17.46,10.17L17.73,9.958L18.17,9.62L18.31,9.5L0.5,9.5zz" fill="#404040"/>
      <path d="M0,9.5L0,29L0,29.05L0.009961,29.1L0.04922,29.29L0.06895,29.39L0.1248,29.47L0.2318,29.63L0.2863,29.71L0.367,29.77L0.5258,29.88L0.6086,29.93L0.7064,29.95L0.901,29.99L0.95,30L1,30L29,30L29.05,30L29.1,29.99L29.29,29.95L29.39,29.93L29.47,29.88L29.63,29.77L29.71,29.71L29.77,29.63L29.88,29.47L29.93,29.39L29.95,29.29L29.99,29.1L30,29.05L30,29L30,14.16L29.73,14.24L29.38,14.28L29.03,14.24L29,14.23L29,28.95L28.99,28.99L28.95,29L1.05,29L1.008,28.99L1,28.95L1,10L17.68,10L17.73,9.958L18.17,9.62L18.76,9.107L18.84,9L0.5,9L0,9zM30,9.194L30,9L29.81,9zM24.22,10L24.51,10L24.3,9.778zz" fill="#D0D0D0"/>
      <path d="M0.733,4.094L0.3516,4.352L0.09434,4.733L0,5.2L0,10L17.68,10L17.73,9.958L18.17,9.62L18.76,9.107L18.98,8.819L19.2,8.501L19.59,8.081L19.68,8L14,8L14,5.2L13.91,4.733L13.65,4.352L13.27,4.094L12.8,4L1.2,4zM29.98,9.17L29.97,9.118L29.89,8.855L29.76,8.617L29.59,8.41L29.38,8.239L29.14,8.11L28.88,8.029L28.84,8.025zM24.22,10L24.51,10L24.3,9.778zz" fill="#6CC2DD"/>
      <path d="M5.056,13.03L4.808,13.1L4.387,13.38L4.104,13.78L4.027,14.02L4,14.28L4,24.72L4.027,24.98L4.104,25.22L4.387,25.62L4.808,25.9L5.056,25.97L5.322,26L24.68,26L24.94,25.97L25.19,25.9L25.61,25.62L25.9,25.22L25.97,24.98L26,24.72L26,14.28L25.97,14.02L25.9,13.78L25.61,13.38L25.19,13.1L24.94,13.03L24.68,13L21.61,13L21.57,13.05L21.25,13.52L21.07,13.79L20.84,14.05L20.53,14.25L20.12,14.32L19.83,14.28L19.48,14.13L19.08,13.86L18.63,13.48L18.15,13L5.322,13zM16,15.83L16.65,16.02L17.22,16.32L17.7,16.74L18.08,17.26L18.36,17.87L18.52,18.57L18.58,19.35L18.54,19.98L18.44,20.56L18.26,21.09L18.02,21.56L17.77,21.9L17.48,22.2L17.14,22.45L16.77,22.65L18.12,24.02L18.19,24.14L18.17,24.26L18.09,24.36L17.96,24.4L16.82,24.4L16.64,24.32L15.41,22.93L15.26,22.94L15.26,22.94L14.51,22.88L13.84,22.7L13.27,22.4L12.79,21.98L12.41,21.46L12.14,20.85L11.98,20.14L11.92,19.35L11.98,18.55L12.14,17.85L12.41,17.24L12.79,16.73L13.28,16.31L13.85,16.01L14.51,15.83L15.27,15.77zM10.13,15.88L10.6,15.99L11.06,16.16L11.18,16.28L11.18,16.44L10.94,17.1L10.81,17.23L10.63,17.24L9.85,17L9.099,16.92L8.621,16.97L8.271,17.13L8.076,17.36L8.013,17.66L8.038,17.91L8.111,18.11L8.249,18.27L8.464,18.42L9.357,18.8L10.3,19.21L10.65,19.42L10.91,19.65L11.11,19.91L11.25,20.2L11.34,20.53L11.37,20.89L11.32,21.35L11.18,21.76L10.95,22.11L10.63,22.41L10.25,22.64L9.805,22.81L9.302,22.91L8.741,22.94L7.638,22.86L7.195,22.76L6.816,22.62L6.728,22.54L6.7,22.41L6.7,21.68L6.719,21.58L6.788,21.49L6.891,21.46L6.999,21.47L7.853,21.73L8.769,21.82L9.379,21.76L9.805,21.58L10.03,21.31L10.11,20.96L10.08,20.72L10,20.53L9.85,20.36L9.614,20.2L8.652,19.81L7.793,19.42L7.47,19.21L7.214,18.97L7.013,18.7L6.869,18.39L6.782,18.04L6.753,17.66L6.796,17.25L6.923,16.88L7.133,16.56L7.427,16.28L7.775,16.06L8.174,15.91L8.622,15.81L9.117,15.78zM20.62,15.9L20.76,15.95L20.8,16.1L20.8,21.6L23.59,21.6L23.66,21.63L23.69,21.72L23.7,21.94L23.7,22.62L23.7,22.62L23.69,22.76L23.59,22.8L19.84,22.8L19.62,22.76L19.54,22.7L19.5,22.62L19.5,16.1L19.54,16.02L19.62,15.95L19.84,15.9zM14.79,16.94L14.38,17.06L14.03,17.24L13.75,17.51L13.52,17.86L13.35,18.28L13.25,18.78L13.22,19.35L13.25,19.94L13.35,20.44L13.52,20.87L13.75,21.22L14.03,21.48L14.38,21.67L14.79,21.78L15.26,21.82L15.73,21.78L16.14,21.67L16.48,21.49L16.76,21.22L16.99,20.87L17.15,20.45L17.25,19.94L17.28,19.35L17.25,18.78L17.15,18.27L16.99,17.85L16.76,17.5L16.48,17.24L16.14,17.05L15.74,16.94L15.27,16.91zz" fill="#51A3E5"/>
      <path d="M14.51,15.83L13.85,16.01L13.28,16.31L12.79,16.73L12.41,17.24L12.14,17.85L11.98,18.55L11.92,19.35L11.98,20.14L12.14,20.85L12.41,21.46L12.79,21.98L13.27,22.4L13.84,22.7L14.51,22.88L15.26,22.94L15.26,22.94L15.41,22.93L16.64,24.32L16.82,24.4L17.96,24.4L18.09,24.36L18.17,24.26L18.19,24.14L18.13,24.02L16.77,22.65L17.14,22.45L17.48,22.2L17.77,21.9L18.02,21.56L18.26,21.09L18.44,20.56L18.54,19.98L18.58,19.35L18.52,18.57L18.36,17.87L18.08,17.26L17.7,16.74L17.22,16.32L16.65,16.02L16,15.83L15.27,15.77zM8.622,15.81L8.174,15.91L7.775,16.06L7.427,16.28L7.133,16.56L6.923,16.88L6.796,17.25L6.753,17.66L6.782,18.04L6.869,18.39L7.013,18.7L7.214,18.97L7.47,19.21L7.793,19.42L8.652,19.81L9.614,20.2L9.85,20.36L10,20.53L10.08,20.72L10.11,20.96L10.03,21.31L9.804,21.58L9.378,21.76L8.768,21.82L7.849,21.73L6.992,21.47L6.887,21.46L6.788,21.49L6.719,21.58L6.7,21.68L6.7,22.41L6.728,22.54L6.816,22.62L7.196,22.76L7.642,22.86L8.749,22.94L9.309,22.91L9.81,22.81L10.25,22.64L10.64,22.41L10.96,22.11L11.18,21.76L11.32,21.35L11.37,20.89L11.34,20.53L11.25,20.2L11.11,19.91L10.91,19.65L10.65,19.42L10.3,19.21L9.357,18.8L8.464,18.42L8.249,18.27L8.111,18.11L8.038,17.91L8.013,17.66L8.076,17.36L8.271,17.13L8.621,16.97L9.099,16.92L9.85,17L10.63,17.24L10.81,17.23L10.94,17.1L11.18,16.44L11.18,16.28L11.06,16.16L10.6,15.99L10.13,15.88L9.117,15.78zM19.62,15.95L19.54,16.02L19.5,16.1L19.5,22.62L19.54,22.7L19.62,22.76L19.84,22.8L23.59,22.8L23.69,22.76L23.7,22.62L23.7,21.94L23.69,21.72L23.66,21.63L23.59,21.6L20.8,21.6L20.8,16.1L20.76,15.95L20.62,15.9L19.84,15.9zM15.74,16.94L16.14,17.05L16.48,17.24L16.76,17.5L16.99,17.85L17.15,18.27L17.25,18.78L17.28,19.35L17.25,19.94L17.15,20.45L16.99,20.87L16.76,21.22L16.48,21.49L16.14,21.67L15.73,21.78L15.26,21.82L14.79,21.78L14.38,21.67L14.03,21.48L13.75,21.22L13.52,20.87L13.35,20.44L13.25,19.94L13.22,19.35L13.25,18.78L13.35,18.28L13.52,17.86L13.75,17.51L14.03,17.24L14.38,17.06L14.79,16.94L15.27,16.91zz" fill="#404040"/>
    </g>
    <g id="overlay">
      <g>
        <polygon points="26.3261,5.8645 27.9375,4.1805 26.7579,2.9649 25.1486,4.6468" fill-rule="evenodd" fill="#D0D0D0" stroke-linejoin="miter"/>
        <polygon points="22.4354,7.4639 21.7969,8.1085 22.9765,9.3241 23.5986,8.6962" fill-rule="evenodd" fill="#D0D0D0" stroke-linejoin="miter"/>
      </g>
      <path d="M17.991,11.0862c-0.016,-0.1409,0.5315,-0.3799,1.4543,-1.2516c0.4104,-0.3877,0.3609,-0.5905,0.8341,-1.0437c1.3161,-1.2605,1.3179,-0.9796,1.4275,-1.0065c0.2392,0.1686,1.4357,1.4028,1.5741,1.6752c0.0296,0.0583,0.271,0.1045,-0.9987,1.4925c-0.3701,0.4046,-0.5108,0.3843,-0.9283,0.8095c-0.8781,0.8943,-1.0805,1.6076,-1.2467,1.5587C19.5786,13.1648,18.0412,11.5273,17.991,11.0862z" fill-rule="evenodd" fill="#51A3E5"/>
      <g>
        <path d="M31.9199,4.1351l-0.9172,-0.9452c-0.1149,-0.1184,-0.3013,-0.1184,-0.4162,0l-0.1056,0.1088c-0.0772,-0.0471,-0.5606,-0.514,-0.633,-0.5586l-1.4586,1.4758l0.5773,0.6435l-0.1092,0.1125c-0.1149,0.1184,-0.1149,0.3105,0,0.4289l0.9172,0.9452c0.1149,0.1184,0.3012,0.1184,0.4162,0l1.7291,-1.782C32.0348,4.4456,32.0348,4.2536,31.9199,4.1351z" fill-rule="evenodd" fill="#D0D0D0"/>
        <path d="M28.3613,4.6519l0.3489,-0.3921c0,0,1.365,-1.3741,1.3713,-1.3806c0.0993,-0.1023,0.1275,-0.1314,0.1344,-0.1385c0.1149,-0.1184,0.1149,-0.3105,0,-0.4289c0,0,-1.3535,-1.3948,-1.5405,-1.5876c-1.0806,-1.1885,-4.1452,-0.529,-4.7127,-0.0604c1.1064,0.3643,1.3012,-0.2074,2.9196,1.5812c-0.1317,0.3391,-0.4282,0.4413,-0.4282,0.4413c-0.1149,0.1184,-0.1149,0.3105,0,0.4289l1.4911,1.5367C28.0601,4.7704,28.2464,4.7704,28.3613,4.6519z" fill-rule="evenodd" fill="#D0D0D0"/>
      </g>
      <path d="M30.6001,12.3526l-0.6726,0.6921c-0.3024,0.3117,-0.7928,0.3117,-1.0952,0L22.0059,5.952c-1.3101,0.4456,-2.4525,0.0611,-2.9793,-0.4817c-0.6907,-0.7118,-1.3729,-2.1567,-0.8745,-3.7836c0.0093,-0.019,0.0262,-0.0448,0.0413,-0.0691l2.2274,2.2955c0.4809,0.4956,0.8189,0.3274,1.2301,-0.0963c0.4111,-0.4237,0.4887,-1.0181,0.1808,-1.3354L19.628,0.2102c0.0267,-0.0157,0.0545,-0.0326,0.0769,-0.0429c1.6453,-0.4625,2.9976,0.3036,3.575,0.9198c0.7269,0.7757,0.8258,1.746,0.3982,3.1319l6.9219,7.0049C30.9025,11.5355,30.9025,12.0409,30.6001,12.3526zM29.6904,11.319c-0.2152,-0.2218,-0.5642,-0.2218,-0.7795,0c-0.2152,0.2218,-0.2152,0.5815,0,0.8033c0.2152,0.2218,0.5642,0.2218,0.7795,0C29.9056,11.9005,29.9056,11.5408,29.6904,11.319z" fill-rule="evenodd" fill="#D0D0D0"/>
    </g>
  </g>
</svg>
