<?xml version="1.0" encoding="UTF-8"?>
<!DOCTYPE svg PUBLIC "-//W3C//DTD SVG 1.1//EN" "http://www.w3.org/Graphics/SVG/1.1/DTD/svg11.dtd">
<svg version="1.1" id="Layer_1" xmlns="http://www.w3.org/2000/svg" xmlns:xlink="http://www.w3.org/1999/xlink" x="0px" y="0px" width="32px" height="32px" viewBox="0 0 32 32" enable-background="new 0 0 32 32" xml:space="preserve">
  <g id="main">
    <g id="icon">
      <path d="M12.2,3.055L10.06,3.219L8.125,3.489L6.442,3.864L5.709,4.09L5.056,4.342L4.488,4.618L4.01,4.919L3.629,5.245L3.35,5.594L3.179,5.968L3.121,6.365L3.178,6.766L3.348,7.148L3.624,7.511L4.001,7.854L4.474,8.175L5.037,8.474L5.686,8.75L6.413,9.001L8.086,9.425L10.01,9.739L12.15,9.933L14.45,10L16.76,9.933L18.92,9.739L19,9.726L19,3.223L18.97,3.219L16.82,3.055L14.51,3zz" fill-rule="evenodd" fill="#EAB765"/>
      <path d="M3.042,17.04L3.052,25.69L3.111,26.39L3.285,27.06L3.567,27.69L3.952,28.29L4.435,28.85L5.009,29.37L5.669,29.85L6.408,30.28L7.222,30.67L8.104,31.01L9.048,31.31L10.05,31.55L11.1,31.75L12.2,31.89L13.34,31.97L14.51,32L15.68,31.97L16.82,31.89L17.92,31.76L18.97,31.58L19.97,31.35L20.92,31.07L21.8,30.74L22.61,30.36L23.35,29.93L24.01,29.46L24.59,28.94L25.07,28.38L25.45,27.77L25.74,27.12L25.91,26.43L25.97,25.69L25.97,16L21.1,16L20.68,15.96L20.28,15.83L19.93,15.64L19.62,15.38L19.36,15.07L19.17,14.72L19.04,14.32L19,13.9L19,10.94L18.63,10.99L16.63,11.13L14.51,11.17L12.35,11.12L10.35,10.98L8.52,10.75L6.905,10.43L5.526,10.03L4.41,9.555L3.959,9.29L3.584,9.007L3.288,8.708L3.075,8.393zz" fill-rule="evenodd" fill="#EAB765"/>
    </g>
    <g id="overlay">
      <path d="M30.9,14.5h-9.8c-0.331,0,-0.6,-0.269,-0.6,-0.6V1.1c0,-0.331,0.269,-0.6,0.6,-0.6c0,0,5.55,0,6.017,0s0.733,0.149,0.925,0.341c0.192,0.192,2.717,2.717,3.034,3.034c0.317,0.317,0.425,0.575,0.425,1.042s0,8.983,0,8.983C31.5,14.231,31.231,14.5,30.9,14.5z" fill-rule="evenodd" fill="#FFFFFF"/>
      <path d="M31.429,3.521L28.395,0.488C28.067,0.16,27.649,0,27.117,0H21.1c-0.607,0,-1.1,0.493,-1.1,1.1v12.8c0,0.607,0.493,1.1,1.1,1.1h9.8c0.607,0,1.1,-0.493,1.1,-1.1V4.917C32,4.324,31.84,3.933,31.429,3.521zM28,1.507L30.493,4h-2.448c-0.016,-0.009,-0.034,-0.023,-0.045,-0.035V1.507zM30.9,14h-9.8c-0.055,0,-0.1,-0.045,-0.1,-0.1V1.1c0,-0.055,0.045,-0.1,0.1,-0.1h5.9v3c0,0.473,0.399,0.867,0.798,0.972c0.051,0.018,0.106,0.027,0.164,0.027H31v8.9C31,13.955,30.955,14,30.9,14z" fill="#6D6E71"/>
      <rect x="23" y="11" width="6" height="1" fill="#3E79B4"/>
      <rect x="23" y="9" width="6" height="1" fill="#3E79B4"/>
      <rect x="23" y="7" width="6" height="1" fill="#3E79B4"/>
    </g>
  </g>
</svg>
