<?xml version="1.0" encoding="UTF-8"?>
<!DOCTYPE svg PUBLIC "-//W3C//DTD SVG 1.1//EN" "http://www.w3.org/Graphics/SVG/1.1/DTD/svg11.dtd">
<svg version="1.1" id="Layer_1" xmlns="http://www.w3.org/2000/svg" xmlns:xlink="http://www.w3.org/1999/xlink" x="0px" y="0px" width="32px" height="32px" viewBox="0 0 32 32" enable-background="new 0 0 32 32" xml:space="preserve">
  <g id="icon">
    <g>
      <path d="M11.4149,9.6542c5.7761,0,10.5113,-1.3261,10.5113,-3.3176s-4.6824,-3.0718,-10.4585,-3.0718c-5.7761,0,-10.3961,1.0802,-10.3961,3.0718S5.6389,9.6542,11.4149,9.6542z" fill="#EAB765"/>
      <path d="M21.6061,24c-0.4536,0,-0.8588,-0.2708,-1.0322,-0.69c-0.1735,-0.4191,-0.0781,-0.8971,0.2428,-1.2176l1.1099,-1.0625c0,-0.3261,0.0001,-0.6701,0.0001,-1.0299H15.3c-0.7163,0,-1.3,-0.5827,-1.3,-1.299V16.3c0,-0.7007,0.5566,-1.2724,1.2665,-1.2929L15.296,15h6.6313c0,-0.351,0.0001,-0.6996,0.0001,-1.043l-1.1045,-1.0563c-0.3208,-0.3206,-0.416,-0.7952,-0.2425,-1.2142c0.1735,-0.419,0.5787,-0.6865,1.0322,-0.6865h0.3152c0.0001,-1.3899,0.0002,-2.4606,0.0002,-2.8975c-0.6689,1.7093,-5.2079,2.6221,-10.4565,2.6221c-5.4299,0,-9.611,-0.9633,-10.4413,-2.5378c-0.0522,0.1374,-0.021,15.6396,-0.021,15.7885c0,3.497,4.6824,5.7598,10.4585,5.7598c5.7631,0,10.437,-2.0351,10.458,-5.7351H21.6061z" fill="#EAB765"/>
    </g>
    <path d="M25.5052,16.0133H15.296c-0.1666,0.0049,-0.295,0.125,-0.295,0.2867v2.401c0,0.1644,0.1345,0.299,0.299,0.299h10.1933l-3.97,3.8c-0.0739,0.0738,-0.0216,0.2,0.0828,0.2l3.6622,0c0.1244,0,0.2438,-0.0495,0.3317,-0.1376l5.2845,-5.1185c0.1555,-0.1757,0.1555,-0.2351,-0.0092,-0.4067L25.6,12.1376c-0.0879,-0.0881,-0.2073,-0.1376,-0.3317,-0.1376h-3.6557c-0.1044,0,-0.1566,0.1262,-0.0828,0.2L25.5052,16.0133z" fill="#CD4C32"/>
  </g>
</svg>
