<?xml version="1.0" encoding="UTF-8"?>
<!DOCTYPE svg PUBLIC "-//W3C//DTD SVG 1.1//EN" "http://www.w3.org/Graphics/SVG/1.1/DTD/svg11.dtd">
<svg version="1.1" id="Layer_1" xmlns="http://www.w3.org/2000/svg" xmlns:xlink="http://www.w3.org/1999/xlink" x="0px" y="0px" width="32px" height="32px" viewBox="0 0 32 32" enable-background="new 0 0 32 32" xml:space="preserve">
  <g id="icon">
    <path d="M8.013,21.667V21.5h0.948c0.046,0.235,0.16,0.456,0.337,0.634l0.848,0.85h-0.831C8.573,22.984,8.013,22.418,8.013,21.667zM9.325,27h0.658c0.02,0,0.039,-0.002,0.058,-0.003h-0.67C9.356,26.999,9.341,26.999,9.325,27zM4,21.667V21.5H1v4.483c0,0.561,0.455,1.017,1.017,1.017h7.005C6.197,26.836,4,24.515,4,21.667z" fill="#B4B4B5"/>
    <path d="M4,19.51c0,-0.72,0.398,-1.49,1.515,-1.49H6.52c0.921,0,1.494,0.571,1.494,1.49V21.5h0.948c-0.045,-0.232,-0.023,-0.478,0.072,-0.707c0.191,-0.461,0.637,-0.758,1.136,-0.758h1.883c0.424,0,0.839,0.172,1.139,0.473l0.989,0.992H16v-3.417c0,-1.149,0.935,-2.083,2.083,-2.083H25.5V1.5H1.5v20h2.5V19.51z" fill="#FFFFFF"/>
    <path d="M16,21v1h-1.321l-0.997,-1H16zM4,21.667V21H2V2h23v14h1V1.5c0,-0.276,-0.224,-0.5,-0.5,-0.5H1.5c-0.276,0,-0.5,0.224,-0.5,0.5v20c0,0.276,0.224,0.5,0.5,0.5h2.511C4.005,21.89,4,21.779,4,21.667zM8.969,21h-0.955v0.667c0,0.116,0.015,0.227,0.04,0.333h1.13C8.969,21.713,8.891,21.348,8.969,21z" fill="#6D6E71"/>
    <path d="M7,18.079c0.57,0.15,0.931,0.583,1,1.208V17h5v3h1v-3h2.307c0.366,-0.598,1.024,-1,1.776,-1H14v-4h5v4h1v-4h4v-1h-4V7h4V6h-4V3h-1v3h-5V3h-1v3H8V3H7v3H3v1h4v4H3v1h4v4H3v1h4V18.079zM14,7h5v4h-5V7zM8,7h5v4H8V7zM8,12h5v4H8V12z" fill="#B4B4B5"/>
    <path d="M14,3h-1V2h1V3zM13.191,20.508l0.491,0.492H14v-1h-1v0.347C13.067,20.396,13.132,20.448,13.191,20.508zM20,2h-1v1h1V2zM25,6h-1v1h1V6zM25,11h-1v1h1V11zM8,2H7v1h1V2zM2,12h1v-1H2V12zM2,7h1V6H2V7zM2,17h1v-1H2V17z" fill="#B4B4B5" opacity="0.5"/>
    <path d="M12.054,28.946c0.16,0,0.314,-0.063,0.428,-0.176l3.402,-3.371c0.217,-0.217,0.211,-0.562,-0.011,-0.785l-3.391,-3.401c-0.114,-0.114,-0.269,-0.179,-0.43,-0.179h-1.883c-0.205,0,-0.308,0.247,-0.163,0.392l2.551,2.556H9.316c-1.291,0,-2.302,-1.018,-2.302,-2.317V19.51c0,-0.373,-0.118,-0.49,-0.494,-0.49H5.515c-0.352,0,-0.515,0.09,-0.515,0.49v2.157c0,2.347,1.83,4.252,4.169,4.34l0.006,0.001l0.022,0c0.031,0,0.06,-0.004,0.089,-0.011h3.266l-2.535,2.545c-0.149,0.149,-0.043,0.404,0.168,0.404H12.054z" fill="#3E79B4"/>
    <path d="M29.917,17H18.083c-0.598,0,-1.083,0.485,-1.083,1.083v11.833c0,0.598,0.485,1.083,1.083,1.083h11.833c0.598,0,1.083,-0.485,1.083,-1.083V18.083C31,17.485,30.515,17,29.917,17zM22.129,28.024l-0.124,0.031c-0.124,0,-0.231,-0.066,-0.318,-0.199c-0.088,-0.133,-0.132,-0.276,-0.132,-0.429c0,-0.102,0.041,-0.174,0.124,-0.214c0.808,-0.378,1.429,-0.799,1.864,-1.263c0.435,-0.465,0.652,-0.911,0.652,-1.34c0,-0.265,-0.181,-0.51,-0.544,-0.735l-0.513,-0.306c-0.714,-0.418,-1.072,-1.011,-1.072,-1.776c0,-0.551,0.173,-0.988,0.52,-1.309c0.347,-0.322,0.8,-0.482,1.359,-0.482c0.797,0,1.403,0.265,1.817,0.796c0.414,0.531,0.626,1.154,0.637,1.868C26.4,25.206,24.976,26.993,22.129,28.024z" fill="#797979"/>
    <path d="M22.005,28.054c-0.124,0,-0.231,-0.066,-0.318,-0.199c-0.088,-0.133,-0.132,-0.276,-0.132,-0.429c0,-0.102,0.041,-0.174,0.124,-0.214c0.808,-0.378,1.429,-0.799,1.864,-1.263c0.435,-0.465,0.652,-0.911,0.652,-1.34c0,-0.265,-0.181,-0.51,-0.544,-0.735l-0.513,-0.306c-0.714,-0.418,-1.072,-1.011,-1.072,-1.776c0,-0.551,0.173,-0.988,0.52,-1.309c0.347,-0.322,0.8,-0.482,1.359,-0.482c0.797,0,1.403,0.265,1.817,0.796c0.414,0.531,0.626,1.154,0.637,1.868c0,2.542,-1.424,4.328,-4.271,5.359L22.005,28.054z" fill="#FFFFFF"/>
  </g>
</svg>
