<svg xmlns="http://www.w3.org/2000/svg" width="32" height="32"><path d="M29.917 17H18.083c-.598 0-1.083.485-1.083 1.083v11.833c0 .598.485 1.083 1.083 1.083h11.833c.598 0 1.083-.485 1.083-1.083V18.083A1.08 1.08 0 0 0 29.917 17z" fill="#d0d0d0"/><path d="M8.013 21.667V21.5h.948c.046.235.16.456.337.634l.848.85h-.831c-.742 0-1.302-.566-1.302-1.317zM9.325 27h.658c.02 0 .039-.002.058-.003h-.67c-.015.002-.03.002-.046.003zM4 21.667V21.5H1v4.483C1 26.544 1.455 27 2.017 27h7.005A5.32 5.32 0 0 1 4 21.667z" fill="#707070"/><path d="M4 19.51c0-.72.398-1.49 1.515-1.49H6.52c.921 0 1.494.571 1.494 1.49v1.99h.948a1.23 1.23 0 0 1 .072-.707c.191-.461.637-.758 1.136-.758h1.883a1.62 1.62 0 0 1 1.139.473l.989.992H16v-3.417c0-1.149.935-2.083 2.083-2.083H25.5V1.5h-24v20H4z" fill="#404040"/><path d="M16 21v1h-1.321l-.997-1zm-12 .667V21H2V2h23v14h1V1.5a.5.5 0 0 0-.5-.5h-24a.5.5 0 0 0-.5.5v20a.5.5 0 0 0 .5.5h2.511L4 21.667zM8.969 21h-.955v.667c0 .116.015.227.04.333h1.13a1.22 1.22 0 0 1-.215-1z" fill="#d0d0d0"/><g fill="#707070"><path d="M7 18.079c.57.15.931.583 1 1.208V17h5v3h1v-3h2.307c.366-.598 1.024-1 1.776-1H14v-4h5v4h1v-4h4v-1h-4V7h4V6h-4V3h-1v3h-5V3h-1v3H8V3H7v3H3v1h4v4H3v1h4v4H3v1h4zM14 7h5v4h-5zM8 7h5v4H8zm0 5h5v4H8z"/><path d="M14 3h-1V2h1zm-.809 17.508l.491.492H14v-1h-1v.347c.067.049.132.101.191.161zM20 2h-1v1h1zm5 4h-1v1h1zm0 5h-1v1h1zM8 2H7v1h1zM2 12h1v-1H2zm0-5h1V6H2zm0 10h1v-1H2z" opacity=".5"/></g><path d="M12.054 28.946a.61.61 0 0 0 .428-.176l3.402-3.371a.55.55 0 0 0-.011-.785l-3.391-3.401a.61.61 0 0 0-.43-.179h-1.883a.23.23 0 0 0-.163.392l2.551 2.556H9.316c-1.291 0-2.302-1.018-2.302-2.317V19.51c0-.373-.118-.49-.494-.49H5.515c-.352 0-.515.09-.515.49v2.157c0 2.347 1.83 4.252 4.169 4.34l.006.001h.022c.031 0 .06-.004.089-.011h3.266l-2.535 2.545c-.149.149-.043.404.168.404z" fill="#51a3e5"/><path d="M25.735 29.108c1.402 0 2.174-.654 2.174-1.84 0-.293-.039-.612-.126-1.034l-.029-.225-.066-.753c0-.496.248-.734.804-.771.178-.012.317-.144.317-.302v-.334c0-.159-.14-.291-.319-.302-.647-.041-.788-.334-.802-.764 0-.343.061-.706.109-.998l.006-.038c.055-.354.107-.763.107-1.095 0-1.123-.798-1.766-2.188-1.766h-.089c-.196 0-.355.142-.355.317v.344c0 .175.159.317.355.317h.047c.667.01.939.274.939.912a4.57 4.57 0 0 1-.069.674l-.027.258-.005.026c-.055.307-.107.597-.107.93-.011.652.241 1.103.753 1.346-.5.243-.753.697-.753 1.356a5.37 5.37 0 0 0 .113.974l.026.173.069.691c0 .638-.282.914-.942.924h-.044c-.196 0-.355.142-.355.317v.344c0 .175.159.317.355.317h.104zm-3.364.006c.196 0 .356-.142.356-.317v-.344c0-.175-.159-.317-.356-.317h-.044c-.661-.01-.943-.287-.943-.925 0-.228.034-.453.069-.692l.026-.174c.055-.309.113-.629.113-.974 0-.66-.253-1.114-.753-1.358.512-.243.765-.695.753-1.347a5.04 5.04 0 0 0-.107-.931l-.005-.026-.027-.258-.069-.675c0-.638.273-.902.94-.912h.047c.196 0 .356-.142.356-.317v-.344c0-.175-.159-.317-.356-.317h-.089c-1.391 0-2.19.644-2.19 1.767 0 .332.052.742.107 1.095l.006.038c.049.292.109.656.109.999-.014.429-.155.724-.803.764-.179.011-.319.144-.319.303v.334c0 .158.139.291.317.302.557.037.805.275.805.771a5.98 5.98 0 0 1-.066.753l-.029.225c-.087.422-.126.741-.126 1.034 0 1.187.772 1.841 2.175 1.841h.105z" fill="#404040"/></svg>