<?xml version="1.0" encoding="UTF-8"?>
<!DOCTYPE svg PUBLIC "-//W3C//DTD SVG 1.1//EN" "http://www.w3.org/Graphics/SVG/1.1/DTD/svg11.dtd">
<svg version="1.1" id="Layer_1" xmlns="http://www.w3.org/2000/svg" xmlns:xlink="http://www.w3.org/1999/xlink" x="0px" y="0px" width="32px" height="32px" viewBox="0 0 32 32" enable-background="new 0 0 32 32" xml:space="preserve">
  <g id="icon">
    <path d="M8.013,21.667V21.5h0.948c0.046,0.235,0.16,0.456,0.337,0.634l0.848,0.85h-0.831C8.573,22.984,8.013,22.418,8.013,21.667zM9.325,27h0.658c0.02,0,0.039,-0.002,0.058,-0.003h-0.67C9.356,26.999,9.341,26.999,9.325,27zM4,21.667V21.5H1v4.483c0,0.561,0.455,1.017,1.017,1.017h7.005C6.197,26.836,4,24.515,4,21.667z" fill="#B4B4B5"/>
    <path d="M4,19.51c0,-0.72,0.398,-1.49,1.515,-1.49H6.52c0.921,0,1.494,0.571,1.494,1.49V21.5h0.948c-0.045,-0.232,-0.023,-0.478,0.072,-0.707c0.191,-0.461,0.637,-0.758,1.136,-0.758h1.883c0.424,0,0.839,0.172,1.139,0.473l0.989,0.992H16v-3.417c0,-1.149,0.935,-2.083,2.083,-2.083H25.5V1.5H1.5v20h2.5V19.51z" fill="#FFFFFF"/>
    <path d="M16,21v1h-1.321l-0.997,-1H16zM4,21.667V21H2V2h23v14h1V1.5c0,-0.276,-0.224,-0.5,-0.5,-0.5H1.5c-0.276,0,-0.5,0.224,-0.5,0.5v20c0,0.276,0.224,0.5,0.5,0.5h2.511C4.005,21.89,4,21.779,4,21.667zM8.969,21h-0.955v0.667c0,0.116,0.015,0.227,0.04,0.333h1.13C8.969,21.713,8.891,21.348,8.969,21z" fill="#6D6E71"/>
    <path d="M7,18.079c0.57,0.15,0.931,0.583,1,1.208V17h5v3h1v-3h2.307c0.366,-0.598,1.024,-1,1.776,-1H14v-4h5v4h1v-4h4v-1h-4V7h4V6h-4V3h-1v3h-5V3h-1v3H8V3H7v3H3v1h4v4H3v1h4v4H3v1h4V18.079zM14,7h5v4h-5V7zM8,7h5v4H8V7zM8,12h5v4H8V12z" fill="#B4B4B5"/>
    <path d="M14,3h-1V2h1V3zM13.191,20.508l0.491,0.492H14v-1h-1v0.347C13.067,20.396,13.132,20.448,13.191,20.508zM20,2h-1v1h1V2zM25,6h-1v1h1V6zM25,11h-1v1h1V11zM8,2H7v1h1V2zM2,12h1v-1H2V12zM2,7h1V6H2V7zM2,17h1v-1H2V17z" fill="#B4B4B5" opacity="0.5"/>
    <path d="M12.054,28.946c0.16,0,0.314,-0.063,0.428,-0.176l3.402,-3.371c0.217,-0.217,0.211,-0.562,-0.011,-0.785l-3.391,-3.401c-0.114,-0.114,-0.269,-0.179,-0.43,-0.179h-1.883c-0.205,0,-0.308,0.247,-0.163,0.392l2.551,2.556H9.316c-1.291,0,-2.302,-1.018,-2.302,-2.317V19.51c0,-0.373,-0.118,-0.49,-0.494,-0.49H5.515c-0.352,0,-0.515,0.09,-0.515,0.49v2.157c0,2.347,1.83,4.252,4.169,4.34l0.006,0.001l0.022,0c0.031,0,0.06,-0.004,0.089,-0.011h3.266l-2.535,2.545c-0.149,0.149,-0.043,0.404,0.168,0.404H12.054z" fill="#3E79B4"/>
    <path d="M24.538,24.724c-0.603,0.189,-1.071,0.357,-1.373,0.471c0.175,-0.475,0.341,-1.032,0.455,-1.456C23.922,24.125,24.265,24.467,24.538,24.724zM22.76,19.025l-0.012,0.001c-0.019,0.002,-0.03,0.002,-0.065,0.042c-0.093,0.244,-0.019,0.867,0.172,1.527c0.106,-0.776,0.088,-1.365,-0.054,-1.554C22.782,19.027,22.773,19.025,22.76,19.025zM19.227,28.766l-0.003,0.015c-0.003,0.011,-0.004,0.02,-0.006,0.027c0.041,0.037,0.067,0.042,0.11,0.05l0.017,0.003c0.129,-0.025,0.33,-0.187,0.544,-0.439c0.257,-0.304,0.486,-0.652,0.664,-0.954C19.309,28.248,19.227,28.761,19.227,28.766zM27.677,25.044c-0.083,0,-0.173,0.004,-0.267,0.012c-0.278,0.023,-0.525,0.058,-0.74,0.093c0.475,0.221,0.946,0.354,1.275,0.354c0.031,0,0.06,-0.001,0.089,-0.003c0.331,-0.027,0.317,-0.197,0.312,-0.261C28.338,25.198,28.202,25.044,27.677,25.044zM31,18.083v11.833c0,0.598,-0.485,1.083,-1.083,1.083H18.083c-0.598,0,-1.083,-0.485,-1.083,-1.083V18.083c0,-0.598,0.485,-1.083,1.083,-1.083h11.833C30.515,17,31,17.485,31,18.083zM29.765,25.288c-0.081,-0.734,-0.826,-1.172,-1.991,-1.172c-0.121,0,-0.245,0.005,-0.367,0.015c-0.643,0.053,-1.456,0.223,-1.804,0.309c-1.121,-0.999,-1.531,-1.634,-1.682,-1.882c0.225,-0.851,0.324,-1.75,0.285,-2.603c-0.031,-0.69,-0.228,-1.206,-0.585,-1.533c-0.305,-0.28,-0.645,-0.322,-0.821,-0.322c-0.033,0,-0.061,0.002,-0.08,0.003c-0.339,0.028,-1.116,0.246,-0.999,1.659c0.091,1.099,0.664,2.158,0.826,2.439c-0.515,1.974,-1.099,3.399,-1.289,3.841c-2.76,1.326,-2.979,2.429,-2.945,2.842c0.047,0.565,0.47,0.916,1.105,0.916c0.05,0,0.102,-0.002,0.155,-0.007c1.539,-0.127,2.717,-2.567,3.065,-3.371c0.979,-0.479,2.279,-0.839,2.747,-0.967c1.008,0.788,2.155,1.068,2.838,1.068c0.058,0,0.113,-0.002,0.164,-0.006c0.192,-0.016,0.55,-0.046,0.853,-0.205C29.622,26.111,29.804,25.758,29.765,25.288z" fill="#CD4C32"/>
    <path d="M19.419,29.8c-0.635,0,-1.058,-0.351,-1.105,-0.916c-0.034,-0.414,0.185,-1.517,2.945,-2.842c0.19,-0.441,0.773,-1.866,1.289,-3.841c-0.162,-0.281,-0.735,-1.34,-0.826,-2.439c-0.117,-1.413,0.659,-1.631,0.999,-1.659c0.019,-0.002,0.047,-0.003,0.08,-0.003c0.176,0,0.516,0.042,0.821,0.322c0.356,0.327,0.553,0.843,0.585,1.533c0.038,0.853,-0.06,1.753,-0.285,2.603c0.151,0.248,0.561,0.883,1.682,1.882c0.349,-0.086,1.161,-0.256,1.804,-0.309c0.122,-0.01,0.246,-0.015,0.367,-0.015c1.165,0,1.91,0.438,1.991,1.172c0.039,0.47,-0.142,0.824,-0.524,1.025c-0.303,0.16,-0.661,0.189,-0.853,0.205c-0.051,0.004,-0.106,0.006,-0.164,0.006c-0.683,0,-1.831,-0.28,-2.838,-1.068c-0.468,0.128,-1.768,0.488,-2.747,0.967c-0.347,0.804,-1.525,3.244,-3.065,3.371C19.521,29.798,19.47,29.8,19.419,29.8zM19.218,28.808c0.041,0.037,0.067,0.042,0.11,0.05l0.017,0.003c0.129,-0.025,0.33,-0.187,0.544,-0.439c0.257,-0.304,0.486,-0.652,0.664,-0.954c-1.244,0.779,-1.326,1.292,-1.327,1.297l-0.003,0.015C19.221,28.793,19.22,28.801,19.218,28.808zM26.67,25.149c0.475,0.221,0.946,0.354,1.275,0.354l0,0c0.031,0,0.06,-0.001,0.089,-0.003c0.331,-0.027,0.317,-0.197,0.312,-0.261c-0.008,-0.04,-0.144,-0.194,-0.669,-0.194c-0.083,0,-0.173,0.004,-0.267,0.012C27.131,25.079,26.885,25.114,26.67,25.149zM23.619,23.739c-0.114,0.425,-0.28,0.981,-0.455,1.456c0.302,-0.114,0.77,-0.281,1.373,-0.471C24.265,24.467,23.922,24.125,23.619,23.739zM22.683,19.068c-0.093,0.244,-0.019,0.867,0.172,1.527c0.106,-0.776,0.088,-1.365,-0.054,-1.554c-0.018,-0.014,-0.028,-0.015,-0.041,-0.015l-0.012,0.001C22.729,19.028,22.718,19.029,22.683,19.068z" fill="#FFFFFF"/>
  </g>
</svg>
