<?xml version="1.0" encoding="UTF-8"?>
<!DOCTYPE svg PUBLIC "-//W3C//DTD SVG 1.1//EN" "http://www.w3.org/Graphics/SVG/1.1/DTD/svg11.dtd">
<svg version="1.1" id="Layer_1" xmlns="http://www.w3.org/2000/svg" xmlns:xlink="http://www.w3.org/1999/xlink" x="0px" y="0px" width="32px" height="32px" viewBox="0 0 32 32" enable-background="new 0 0 32 32" xml:space="preserve">
  <g id="main">
    <g id="icon">
      <path d="M21.21,7.595L12.21,14.09L12.02,14.37L12.05,14.71L12.28,14.95L12.61,14.99L12.79,14.91L21.79,8.405L21.98,8.128L21.95,7.792L21.72,7.551L21.39,7.513zz" fill="#D0D0D0"/>
      <path d="M12.22,16.19L12.02,16.46L12.04,16.79L12.15,16.96L18.15,22.86L18.45,23L18.78,22.91L18.98,22.64L18.96,22.31L18.85,22.14L12.85,16.24L12.55,16.1zz" fill="#D0D0D0"/>
      <g>
        <path d="M2.5,16.87L2.627,16.8L3.233,16.51L3.864,16.29L4.517,16.13L5.188,16.03L5.873,15.99L6.56,16.03L7.233,16.13L7.888,16.29L8.521,16.52L9.129,16.8L9.708,17.15L10.25,17.55L10.76,18.01L11.16,18.44L11.52,18.9L11.87,19.5L12,19.5L12.19,19.46L12.35,19.35L12.46,19.19L12.5,19L12.5,10.5L2.5,10.5zz" fill="#404040"/>
        <path d="M2,17.18L2.049,17.14L2.627,16.8L3,16.62L3,11L12,11L12,19L11.58,19L12.11,19.9L12.14,19.97L12.39,19.92L12.71,19.71L12.92,19.39L13,19L13,10L2,10zz" fill="#D0D0D0"/>
        <path d="M2.611,9.079L2.293,9.293L2.079,9.611L2,10L2,12L13,12L13,10L12.92,9.611L12.71,9.293L12.39,9.079L12,9L3,9zz" fill="#51A3E5"/>
        <path d="M7,15L3,15L3,16L5.768,16L5.873,15.99L5.978,16L7,16L7,16.09L7.233,16.13L7.888,16.29L8,16.33L8,16L12,16L12,15L8,15L8,12L7,12zz" fill="#707070"/>
      </g>
      <g>
        <path d="M18.5,28L18.54,28.19L18.65,28.35L18.81,28.46L19,28.5L28,28.5L28.19,28.46L28.35,28.35L28.46,28.19L28.5,28L28.5,19.5L18.5,19.5zz" fill="#404040"/>
        <path d="M18,28L18.08,28.39L18.29,28.71L18.61,28.92L19,29L28,29L28.39,28.92L28.71,28.71L28.92,28.39L29,28L29,19L18,19zM28,20L28,28L19,28L19,20zz" fill="#D0D0D0"/>
        <path d="M18.61,18.08L18.29,18.29L18.08,18.61L18,19L18,21L29,21L29,19L28.92,18.61L28.71,18.29L28.39,18.08L28,18L19,18zz" fill="#51A3E5"/>
        <path d="M23,24L19,24L19,25L23,25L23,28L24,28L24,25L28,25L28,24L24,24L24,21L23,21zz" fill="#707070"/>
      </g>
      <g>
        <path d="M21.5,11L21.54,11.19L21.65,11.35L21.81,11.46L22,11.5L31,11.5L31.19,11.46L31.35,11.35L31.46,11.19L31.5,11L31.5,2.5L21.5,2.5zz" fill="#404040"/>
        <path d="M21,11L21.08,11.39L21.29,11.71L21.61,11.92L22,12L31,12L31.39,11.92L31.71,11.71L31.92,11.39L32,11L32,2L21,2zM31,3L31,11L22,11L22,3zz" fill="#D0D0D0"/>
        <path d="M21.61,1.079L21.29,1.293L21.08,1.611L21,2L21,4L32,4L32,2L31.92,1.611L31.71,1.293L31.39,1.079L31,1L22,1zz" fill="#51A3E5"/>
        <path d="M26,7L22,7L22,8L26,8L26,11L27,11L27,8L31,8L31,7L27,7L27,4L26,4zz" fill="#707070"/>
      </g>
    </g>
    <g id="overlay">
      <path d="M1.7021,18.7107c-2.3055,2.2909,-2.3019,6.0089,0.0082,8.3044c1.9912,1.9787,5.0455,2.2528,7.3275,0.8238l3.9127,3.9449c0.2571,0.2555,0.6739,0.2555,0.9309,0l0.9309,-0.925c0.2571,-0.2555,0.2571,-0.6696,0,-0.9251l-3.9153,-3.9475c1.4282,-2.2661,1.1495,-5.2927,-0.8378,-7.2674C7.7493,16.4234,4.0076,16.4197,1.7021,18.7107zM8.65,20.1519c1.5225,1.5129,1.5225,3.9658,0,5.4787c-1.5225,1.5129,-3.991,1.5129,-5.5135,0c-1.5225,-1.5129,-1.5225,-3.9658,0,-5.4787C4.659,18.639,7.1275,18.639,8.65,20.1519z" fill-rule="evenodd" fill="#51A3E5"/>
    </g>
  </g>
</svg>
