<?xml version="1.0" encoding="UTF-8"?>
<!DOCTYPE svg PUBLIC "-//W3C//DTD SVG 1.1//EN" "http://www.w3.org/Graphics/SVG/1.1/DTD/svg11.dtd">
<svg version="1.1" id="Layer_1" xmlns="http://www.w3.org/2000/svg" xmlns:xlink="http://www.w3.org/1999/xlink" x="0px" y="0px" width="32px" height="32px" viewBox="0 0 32 32" enable-background="new 0 0 32 32" xml:space="preserve">
  <g id="icon">
    <path d="M16,0C7.2,0,0,7.2,0,16s7.2,16,16,16s16,-7.2,16,-16S24.8,0,16,0zM18.6,20.4c0.4,0.4,0.8,1.1,0.8,2.3c0,1.6,0,3,0,3.4c0,0.1,0,0.3,0.3,0.5c-0.9,0.3,-2,0.4,-3,0.4c-1.2,0,-2.3,-0.2,-3.4,-0.5c0.1,-0.1,0.1,-0.2,0.1,-0.3c0,-0.3,0,-1.3,0,-2.3c-3.5,0.7,-4.2,-1.5,-4.2,-1.5c-0.6,-1.4,-1.4,-1.8,-1.4,-1.8c-1.1,-0.8,0.1,-0.8,0.1,-0.8c1.2,0.1,1.9,1.3,1.9,1.3c1.1,1.9,2.9,1.3,3.6,1c0.1,-0.8,0.4,-1.4,0.8,-1.7c-2.8,-0.3,-5.7,-1.4,-5.7,-6.2c0,-1.3,0.5,-2.4,1.3,-3.3c-0.2,-0.3,-0.6,-1.6,0.1,-3.3c0,0,1,-0.3,3.4,1.3c1,-0.3,2,-0.4,3.1,-0.4c1,0,2.1,0.1,3.1,0.4c2.4,-1.6,3.4,-1.3,3.4,-1.3c0.7,1.7,0.2,3,0.1,3.3c0.8,0.8,1.3,1.9,1.3,3.3C24.3,19,21.4,20.1,18.6,20.4z" fill="#797979"/>
    <path d="M19.4,26.1c0,-0.4,0,-1.8,0,-3.4c0,-1.2,-0.4,-1.9,-0.8,-2.3c2.8,-0.3,5.7,-1.4,5.7,-6.2c0,-1.4,-0.5,-2.5,-1.3,-3.3c0.1,-0.3,0.6,-1.6,-0.1,-3.3c0,0,-1,-0.3,-3.4,1.3c-1,-0.3,-2.1,-0.4,-3.1,-0.4c-1.1,0,-2.1,0.1,-3.1,0.4c-2.4,-1.6,-3.4,-1.3,-3.4,-1.3c-0.7,1.7,-0.3,3,-0.1,3.3c-0.8,0.9,-1.3,2,-1.3,3.3c0,4.8,2.9,5.9,5.7,6.2c-0.4,0.3,-0.7,0.9,-0.8,1.7c-0.7,0.3,-2.5,0.9,-3.6,-1c0,0,-0.7,-1.2,-1.9,-1.3c0,0,-1.2,0,-0.1,0.8c0,0,0.8,0.4,1.4,1.8c0,0,0.7,2.2,4.2,1.5c0,1,0,2,0,2.3c0,0.1,0,0.2,-0.1,0.3c1.1,0.3,2.2,0.5,3.4,0.5c1,0,2.1,-0.1,3,-0.4C19.4,26.4,19.4,26.2,19.4,26.1z" fill="#FFFFFF"/>
  </g>
</svg>
