<?xml version="1.0" encoding="UTF-8"?>
<!DOCTYPE svg PUBLIC "-//W3C//DTD SVG 1.1//EN" "http://www.w3.org/Graphics/SVG/1.1/DTD/svg11.dtd">
<svg version="1.1" id="Layer_1" xmlns="http://www.w3.org/2000/svg" xmlns:xlink="http://www.w3.org/1999/xlink" x="0px" y="0px" width="32px" height="32px" viewBox="0 0 32 32" enable-background="new 0 0 32 32" xml:space="preserve">
  <g id="icon">
    <path d="M30.1,7.8c-1.484,-1.484,-5.601,-5.601,-5.9,-5.9c-0.35,-0.35,-0.662,-0.4,-0.9,-0.4S8.4,1.5,8.4,1.5c-0.635,0,-0.9,0.259,-0.9,0.9v6.916C8.299,9.11,9.137,9,10,9c5.514,0,10,4.486,10,10s-4.486,10,-10,10c-0.863,0,-1.701,-0.11,-2.5,-0.316V28.7v0.9c0,0.641,0.265,0.9,0.9,0.9h21.2c0.635,0,0.9,-0.259,0.9,-0.9c0,0,0,-20.488,0,-20.8C30.5,8.35,30.353,8.053,30.1,7.8z" fill="#FFFFFF"/>
    <path d="M30.454,7.446l-5.9,-5.9C24.186,1.179,23.776,1,23.3,1H8.4c-0.916,0,-1.4,0.484,-1.4,1.4v7.06c0.327,-0.103,0.66,-0.19,1,-0.259V2.4c0,-0.363,0.037,-0.4,0.4,-0.4h14.6v5.7c0,0.717,0.583,1.3,1.3,1.3h5.7v20.6c0,0.363,-0.037,0.4,-0.4,0.4H8.4c-0.363,0,-0.4,-0.037,-0.4,-0.4v-0.801c-0.34,-0.069,-0.673,-0.156,-1,-0.259V29.6c0,0.916,0.484,1.4,1.4,1.4h21.2c0.916,0,1.4,-0.484,1.4,-1.4V8.8C31,8.249,30.826,7.819,30.454,7.446zM24.3,8c-0.165,0,-0.3,-0.135,-0.3,-0.3V2.407L29.593,8H24.3z" fill="#6D6E71"/>
    <path d="M10,10c-4.971,0,-9,4.029,-9,9c0,4.971,4.029,9,9,9s9,-4.029,9,-9C19,14.029,14.971,10,10,10zM11.125,24.23c0,0.218,-0.175,0.395,-0.391,0.395H9.266c-0.216,0,-0.391,-0.177,-0.391,-0.395V23.2c0,-0.218,0.175,-0.375,0.391,-0.375h1.467c0.216,0,0.391,0.157,0.391,0.375V24.23zM11.867,19.33l-0.047,0.035c-0.502,0.518,-0.695,0.899,-0.807,1.354v0.061c0,0.266,-0.156,0.47,-0.442,0.47H9.37c-0.267,0,-0.495,-0.183,-0.495,-0.47v-0.171c0,-1.021,0.693,-1.683,1.276,-2.268c0.063,-0.063,0.1,-0.125,0.16,-0.186l0.008,-0.008c0.508,-0.52,0.946,-0.97,0.946,-1.556c0,-0.759,-0.558,-1.269,-1.388,-1.269c-0.473,0,-0.957,0.156,-1.525,0.492l-0.599,0.401c-0.087,0.058,-0.188,0.089,-0.292,0.089c-0.179,0,-0.345,-0.09,-0.443,-0.24l-0.484,-0.756c-0.119,-0.181,-0.14,-0.556,0.074,-0.704c0.019,-0.014,0.072,-0.049,0.293,-0.195c0.066,-0.043,0.119,-0.079,0.129,-0.085c0.944,-0.647,1.989,-0.988,3.024,-0.988c1.913,0,3.296,1.311,3.296,3.117C13.349,17.808,12.559,18.617,11.867,19.33z" fill-rule="evenodd" fill="#3E79B4"/>
    <path d="M11.125,24.23c0,0.218,-0.175,0.395,-0.391,0.395H9.266c-0.216,0,-0.391,-0.177,-0.391,-0.395V23.2c0,-0.218,0.175,-0.375,0.391,-0.375h1.467c0.216,0,0.391,0.157,0.391,0.375V24.23zM10.054,13.337c-1.035,0,-2.08,0.341,-3.024,0.988c-0.01,0.007,-0.064,0.042,-0.129,0.085c-0.221,0.145,-0.274,0.181,-0.293,0.195c-0.214,0.148,-0.192,0.523,-0.074,0.704l0.484,0.756c0.098,0.15,0.264,0.24,0.443,0.24c0.104,0,0.205,-0.031,0.292,-0.089l0.599,-0.401c0.567,-0.336,1.052,-0.492,1.525,-0.492c0.83,0,1.388,0.51,1.388,1.269c0,0.586,-0.438,1.036,-0.946,1.556l-0.008,0.008c-0.06,0.061,-0.098,0.123,-0.16,0.186c-0.583,0.584,-1.276,1.247,-1.276,2.268v0.171c0,0.287,0.228,0.47,0.495,0.47h1.201c0.286,0,0.442,-0.204,0.442,-0.47v-0.061c0.113,-0.454,0.305,-0.835,0.807,-1.354l0.047,-0.035c0.692,-0.713,1.483,-1.522,1.483,-2.876C13.349,14.648,11.967,13.337,10.054,13.337z" fill="#FFFFFF"/>
  </g>
</svg>
