<?xml version="1.0" encoding="UTF-8"?>
<!DOCTYPE svg PUBLIC "-//W3C//DTD SVG 1.1//EN" "http://www.w3.org/Graphics/SVG/1.1/DTD/svg11.dtd">
<svg version="1.1" id="Layer_1" xmlns="http://www.w3.org/2000/svg" xmlns:xlink="http://www.w3.org/1999/xlink" x="0px" y="0px" width="32px" height="32px" viewBox="0 0 32 32" enable-background="new 0 0 32 32" xml:space="preserve">
  <g id="main">
    <g id="icon">
      <g>
        <path d="M1.703,22.53L1.597,22.6L1.526,22.7L1.5,22.83L1.5,31.17L1.526,31.3L1.597,31.4L1.703,31.47L1.832,31.5L8.168,31.5L8.297,31.47L8.403,31.4L8.474,31.3L8.5,31.17L8.5,25.78L8.448,25.46L8.264,25.2L5.601,22.69L5.402,22.55L5.089,22.5L1.832,22.5zz" fill-rule="evenodd" fill="#404040"/>
        <path d="M1.733,22.01L1.604,22.04L1.506,22.06L1.423,22.11L1.318,22.18L1.237,22.24L1.183,22.32L1.112,22.42L1.056,22.51L1.036,22.6L1.01,22.73L1,22.78L1,22.83L1,31.17L1,31.22L1.01,31.27L1.036,31.4L1.056,31.49L1.112,31.58L1.183,31.68L1.237,31.76L1.318,31.82L1.423,31.89L1.506,31.94L1.604,31.96L1.733,31.99L1.782,32L1.832,32L8.168,32L8.218,32L8.267,31.99L8.396,31.96L8.494,31.94L8.577,31.89L8.682,31.82L8.763,31.76L8.817,31.68L8.888,31.58L8.944,31.49L8.964,31.4L8.99,31.27L9,31.22L9,31.17L9,25.78L9,25.74L8.994,25.7L8.942,25.38L8.923,25.26L8.855,25.17L8.671,24.91L8.643,24.87L8.608,24.84L5.945,22.33L5.915,22.3L5.881,22.28L5.682,22.14L5.594,22.08L5.488,22.06L5.175,22.01L5.132,22L5.089,22L1.832,22L1.782,22zM5.046,23L5.211,23.03L5.289,23.08L7.885,25.53L7.973,25.65L8,25.82L8,31L2,31L2,23zz" fill="#D0D0D0"/>
        <path d="M5,25.27L5.046,25.48L5.126,25.65L5.362,25.89L5.405,25.91L5.554,25.97L5.73,26L8.5,26L8.5,25L6,25L6,22.8L5,22.8zz" fill="#D0D0D0"/>
      </g>
      <g>
        <path d="M11.7,22.53L11.6,22.6L11.53,22.7L11.5,22.83L11.5,31.17L11.53,31.3L11.6,31.4L11.7,31.47L11.83,31.5L18.17,31.5L18.3,31.47L18.4,31.4L18.47,31.3L18.5,31.17L18.5,25.78L18.45,25.46L18.26,25.2L15.6,22.69L15.4,22.55L15.09,22.5L11.83,22.5zz" fill-rule="evenodd" fill="#404040"/>
        <path d="M11.73,22.01L11.6,22.04L11.51,22.06L11.42,22.11L11.32,22.18L11.24,22.24L11.18,22.32L11.11,22.42L11.06,22.51L11.04,22.6L11.01,22.73L11,22.78L11,22.83L11,31.17L11,31.22L11.01,31.27L11.04,31.4L11.06,31.49L11.11,31.58L11.18,31.68L11.24,31.76L11.32,31.82L11.42,31.89L11.51,31.94L11.6,31.96L11.73,31.99L11.78,32L11.83,32L18.17,32L18.22,32L18.27,31.99L18.4,31.96L18.49,31.94L18.58,31.89L18.68,31.82L18.76,31.76L18.82,31.68L18.89,31.58L18.94,31.49L18.96,31.4L18.99,31.27L19,31.22L19,31.17L19,25.78L19,25.74L18.99,25.7L18.94,25.38L18.92,25.26L18.86,25.17L18.67,24.91L18.64,24.87L18.61,24.84L15.94,22.33L15.92,22.3L15.88,22.28L15.68,22.14L15.59,22.08L15.49,22.06L15.18,22.01L15.13,22L15.09,22L11.83,22L11.78,22zM15.05,23L15.21,23.03L15.29,23.08L17.89,25.53L17.97,25.65L18,25.82L18,31L12,31L12,23zz" fill="#D0D0D0"/>
        <path d="M15,25.27L15.05,25.48L15.13,25.65L15.36,25.89L15.4,25.91L15.55,25.97L15.73,26L18.5,26L18.5,25L16,25L16,22.8L15,22.8zz" fill="#D0D0D0"/>
      </g>
      <g>
        <path d="M21.7,22.53L21.6,22.6L21.53,22.7L21.5,22.83L21.5,31.17L21.53,31.3L21.6,31.4L21.7,31.47L21.83,31.5L28.17,31.5L28.3,31.47L28.4,31.4L28.47,31.3L28.5,31.17L28.5,25.78L28.45,25.46L28.26,25.2L25.6,22.69L25.4,22.55L25.09,22.5L21.83,22.5zz" fill-rule="evenodd" fill="#404040"/>
        <path d="M21.73,22.01L21.6,22.04L21.51,22.06L21.42,22.11L21.32,22.18L21.24,22.24L21.18,22.32L21.11,22.42L21.06,22.51L21.04,22.6L21.01,22.73L21,22.78L21,22.83L21,31.17L21,31.22L21.01,31.27L21.04,31.4L21.06,31.49L21.11,31.58L21.18,31.68L21.24,31.76L21.32,31.82L21.42,31.89L21.51,31.94L21.6,31.96L21.73,31.99L21.78,32L21.83,32L28.17,32L28.22,32L28.27,31.99L28.4,31.96L28.49,31.94L28.58,31.89L28.68,31.82L28.76,31.76L28.82,31.68L28.89,31.58L28.94,31.49L28.96,31.4L28.99,31.27L29,31.22L29,31.17L29,25.78L29,25.74L28.99,25.7L28.94,25.38L28.92,25.26L28.86,25.17L28.67,24.91L28.64,24.87L28.61,24.84L25.94,22.33L25.92,22.3L25.88,22.28L25.68,22.14L25.59,22.08L25.49,22.06L25.18,22.01L25.13,22L25.09,22L21.83,22L21.78,22zM25.05,23L25.21,23.03L25.29,23.08L27.89,25.53L27.97,25.65L28,25.82L28,31L22,31L22,23zz" fill="#D0D0D0"/>
        <path d="M25,25.27L25.05,25.48L25.13,25.65L25.36,25.89L25.4,25.91L25.55,25.97L25.73,26L28.5,26L28.5,25L26,25L26,22.8L25,22.8zz" fill="#D0D0D0"/>
      </g>
      <path d="M14,17L5.996,17L5.972,17L5.947,17L5.646,17.03L5.597,17.04L5.55,17.05L5.269,17.14L5.222,17.15L5.179,17.17L4.925,17.31L4.882,17.33L4.845,17.36L4.623,17.54L4.586,17.57L4.555,17.61L4.372,17.83L4.341,17.86L4.317,17.91L4.179,18.16L4.155,18.2L4.14,18.25L4.053,18.53L4.038,18.58L4.033,18.63L4.003,18.93L4,18.95L4,18.98L4,22L5,22L5,19L5.023,18.78L5.08,18.6L5.171,18.43L5.291,18.29L5.437,18.17L5.606,18.08L5.793,18.02L6.021,18L14,18L14,22L15,22L15,18L23.1,18L23.3,18.02L23.47,18.07L23.61,18.15L23.74,18.25L23.85,18.38L23.93,18.52L23.98,18.69L24,18.89L24,22L25,22L25,18.86L25,18.84L25,18.81L24.97,18.53L24.96,18.48L24.95,18.44L24.87,18.18L24.85,18.13L24.83,18.09L24.7,17.86L24.68,17.81L24.65,17.78L24.48,17.57L24.45,17.54L24.41,17.51L24.21,17.34L24.17,17.31L24.13,17.29L23.89,17.16L23.85,17.14L23.8,17.13L23.54,17.05L23.5,17.03L23.45,17.03L23.17,17L23.15,17L23.12,17L15,17L15,13L14,13zz" fill="#D0D0D0"/>
      <path d="M8.382,2.049L8.183,2.183L8.049,2.382L8,2.625L8,12.38L8.049,12.62L8.183,12.82L8.382,12.95L8.625,13L19.57,13L19.27,12.73L18.75,12.15L18.28,11.53L17.96,11L15.9,11L15.71,10.96L15.55,10.85L15.44,10.69L15.4,10.5L15.44,10.31L15.55,10.15L15.71,10.04L15.9,10L17.48,10L17.26,9.409L17.16,9L15.9,9L15.71,8.961L15.55,8.854L15.44,8.695L15.4,8.5L15.44,8.305L15.55,8.146L15.71,8.039L15.9,8L16.97,8L16.94,7.828L16.9,7L15.9,7L15.71,6.961L15.55,6.854L15.44,6.695L15.4,6.5L15.44,6.305L15.55,6.146L15.71,6.039L15.9,6L16.97,6L16.97,5.899L17.16,5L15.9,5L15.71,4.961L15.55,4.854L15.44,4.695L15.4,4.5L15.44,4.305L15.55,4.146L15.71,4.039L15.9,4L17.48,4L17.54,3.841L18.01,2.904L18.59,2.042L18.63,2L8.625,2zM13.3,4L13.49,4.039L13.65,4.146L13.76,4.305L13.8,4.5L13.76,4.695L13.65,4.854L13.49,4.961L13.3,5L10.6,5L10.41,4.961L10.25,4.854L10.14,4.695L10.1,4.5L10.14,4.305L10.25,4.146L10.41,4.039L10.6,4zM13.3,6L13.49,6.039L13.65,6.146L13.76,6.305L13.8,6.5L13.76,6.695L13.65,6.854L13.49,6.961L13.3,7L10.6,7L10.41,6.961L10.25,6.854L10.14,6.695L10.1,6.5L10.14,6.305L10.25,6.146L10.41,6.039L10.6,6zM13.3,8L13.49,8.039L13.65,8.146L13.76,8.305L13.8,8.5L13.76,8.695L13.65,8.854L13.49,8.961L13.3,9L10.6,9L10.41,8.961L10.25,8.854L10.14,8.695L10.1,8.5L10.14,8.305L10.25,8.146L10.41,8.039L10.6,8zM13.3,10L13.49,10.04L13.65,10.15L13.76,10.31L13.8,10.5L13.76,10.69L13.65,10.85L13.49,10.96L13.3,11L10.6,11L10.41,10.96L10.25,10.85L10.14,10.69L10.1,10.5L10.14,10.31L10.25,10.15L10.41,10.04L10.6,10zz" fill="#51A3E5"/>
      <path d="M10.41,4.039L10.25,4.146L10.14,4.305L10.1,4.5L10.14,4.695L10.25,4.854L10.41,4.961L10.6,5L13.3,5L13.49,4.961L13.65,4.854L13.76,4.695L13.8,4.5L13.76,4.305L13.65,4.146L13.49,4.039L13.3,4L10.6,4zM15.71,4.039L15.55,4.146L15.44,4.305L15.4,4.5L15.44,4.695L15.55,4.854L15.71,4.961L15.9,5L17.16,5L17.19,4.843L17.48,4L15.9,4zM10.41,6.039L10.25,6.146L10.14,6.305L10.1,6.5L10.14,6.695L10.25,6.854L10.41,6.961L10.6,7L13.3,7L13.49,6.961L13.65,6.854L13.76,6.695L13.8,6.5L13.76,6.305L13.65,6.146L13.49,6.039L13.3,6L10.6,6zM15.71,6.039L15.55,6.146L15.44,6.305L15.4,6.5L15.44,6.695L15.55,6.854L15.71,6.961L15.9,7L16.9,7L16.97,6L15.9,6zM10.41,8.039L10.25,8.146L10.14,8.305L10.1,8.5L10.14,8.695L10.25,8.854L10.41,8.961L10.6,9L13.3,9L13.49,8.961L13.65,8.854L13.76,8.695L13.8,8.5L13.76,8.305L13.65,8.146L13.49,8.039L13.3,8L10.6,8zM15.71,8.039L15.55,8.146L15.44,8.305L15.4,8.5L15.44,8.695L15.55,8.854L15.71,8.961L15.9,9L17.16,9L17.06,8.632L16.97,8L15.9,8zM10.41,10.04L10.25,10.15L10.14,10.31L10.1,10.5L10.14,10.69L10.25,10.85L10.41,10.96L10.6,11L13.3,11L13.49,10.96L13.65,10.85L13.76,10.69L13.8,10.5L13.76,10.31L13.65,10.15L13.49,10.04L13.3,10L10.6,10zM15.71,10.04L15.55,10.15L15.44,10.31L15.4,10.5L15.44,10.69L15.55,10.85L15.71,10.96L15.9,11L17.96,11L17.88,10.86L17.54,10.15L17.48,10L15.9,10zz" fill="#404040"/>
    </g>
    <g id="overlay">
      <path d="M25,0c-3.866,0,-7,3.134,-7,7c0,3.866,3.134,7,7,7s7,-3.134,7,-7C32,3.134,28.866,0,25,0zM20,8V6h10v2H20z" fill-rule="evenodd" fill="#F96C55"/>
      <rect x="20" y="6" width="10" height="2" fill-rule="evenodd" fill="#404040"/>
    </g>
  </g>
</svg>
