<?xml version="1.0" encoding="UTF-8"?>
<!DOCTYPE svg PUBLIC "-//W3C//DTD SVG 1.1//EN" "http://www.w3.org/Graphics/SVG/1.1/DTD/svg11.dtd">
<svg version="1.1" id="Layer_1" xmlns="http://www.w3.org/2000/svg" xmlns:xlink="http://www.w3.org/1999/xlink" x="0px" y="0px" width="32px" height="32px" viewBox="0 0 32 32" enable-background="new 0 0 32 32" xml:space="preserve">
  <g id="icon">
    <path d="M15.5,1C7.4919,1,1,7.4919,1,15.5c0,8.0081,6.4919,14.5,14.5,14.5s14.5,-6.4919,14.5,-14.5C30,7.4919,23.5081,1,15.5,1zM17,24.6c0,0.2209,-0.1791,0.4,-0.4,0.4h-2.2c-0.2209,0,-0.4,-0.1791,-0.4,-0.4V12.4c0,-0.2209,0.1791,-0.4,0.4,-0.4h2.2c0.2209,0,0.4,0.1791,0.4,0.4V24.6zM17,8.6c0,0.2209,-0.1791,0.4,-0.4,0.4h-2.2c-0.2209,0,-0.4,-0.1791,-0.4,-0.4V6.4c0,-0.2209,0.1791,-0.4,0.4,-0.4h2.2c0.2209,0,0.4,0.1791,0.4,0.4V8.6z" fill-rule="evenodd" fill="#2C3E50"/>
    <path d="M16.6,25h-2.2c-0.2209,0,-0.4,-0.1791,-0.4,-0.4V12.4c0,-0.2209,0.1791,-0.4,0.4,-0.4h2.2c0.2209,0,0.4,0.1791,0.4,0.4v12.2C17,24.8209,16.8209,25,16.6,25zM16.6,6h-2.2c-0.2209,0,-0.4,0.1791,-0.4,0.4v2.2c0,0.2209,0.1791,0.4,0.4,0.4h2.2c0.2209,0,0.4,-0.1791,0.4,-0.4V6.4C17,6.1791,16.8209,6,16.6,6z" fill-rule="evenodd" fill="#2C3E50"/>
  </g>
</svg>
