<?xml version="1.0" encoding="UTF-8"?>
<!DOCTYPE svg PUBLIC "-//W3C//DTD SVG 1.1//EN" "http://www.w3.org/Graphics/SVG/1.1/DTD/svg11.dtd">
<svg version="1.1" id="Layer_1" xmlns="http://www.w3.org/2000/svg" xmlns:xlink="http://www.w3.org/1999/xlink" x="0px" y="0px" width="32px" height="32px" viewBox="0 0 32 32" enable-background="new 0 0 32 32" xml:space="preserve">
  <g id="main">
    <g id="icon">
      <path d="M0.5,28.77L0.5361,29.09L0.6387,29.41L0.7994,29.7L1.01,29.96L1.261,30.18L1.544,30.35L1.851,30.46L2.174,30.5L7.5,30.5L7.5,29.65L7.533,29.3L7.484,29.22L7.312,29.2L7.213,29.2L6.959,29.13L6.73,28.94L6.564,28.69L6.5,28.42L6.5,27L6.564,26.78L6.73,26.62L6.959,26.53L7.213,26.5L11.98,26.5L12.2,26.53L12.37,26.62L12.47,26.78L12.5,27L12.5,28.42L12.47,28.69L12.37,28.94L12.2,29.13L11.98,29.2L11.88,29.2L11.68,29.22L11.56,29.3L11.51,29.43L11.5,29.65L11.5,30.5L18.5,30.5L18.5,29.65L18.52,29.3L18.47,29.22L18.3,29.2L18.2,29.2L17.94,29.13L17.72,28.94L17.56,28.69L17.5,28.42L17.5,27L17.56,26.78L17.72,26.62L17.94,26.53L18.2,26.5L22.96,26.5L23.19,26.53L23.36,26.62L23.46,26.78L23.5,27L23.5,28.42L23.46,28.69L23.36,28.94L23.19,29.13L22.96,29.2L22.87,29.2L22.67,29.22L22.56,29.3L22.51,29.43L22.5,29.65L22.5,30.5L28,30.5L28.32,30.46L28.61,30.35L28.86,30.18L29.08,29.96L29.26,29.7L29.39,29.41L29.47,29.09L29.5,28.77L29.5,13.72L29.1,13.99L28.16,14.46L27.16,14.81L26.1,15.03L25,15.1L24.17,15.06L23.37,14.94L22.59,14.74L21.85,14.46L21.14,14.12L20.47,13.72L19.85,13.25L19.27,12.73L18.75,12.15L18.28,11.53L17.88,10.86L17.54,10.15L17.26,9.409L17.16,9L0.5,9zz" fill="#404040"/>
      <path d="M0,28.77L0.04668,29.2L0.1797,29.61L0.3879,29.99L0.6604,30.32L0.9861,30.6L1.354,30.82L1.754,30.95L2.174,31L7.5,31L7.695,30.96L7.854,30.85L7.961,30.69L8,30.5L8,29.65L8.016,29.49L8.029,29.23L7.991,29.08L7.894,28.92L7.74,28.79L7.577,28.73L7.312,28.7L7.224,28.7L7.084,28.58L7,28.42L7,27.04L7.213,27L11.98,27L12,27L12,28.42L11.93,28.7L11.88,28.7L11.59,28.73L11.37,28.81L11.22,28.94L11.11,29.09L11.01,29.4L11,29.65L11,30.5L11.04,30.69L11.15,30.85L11.31,30.96L11.5,31L18.5,31L18.69,30.96L18.85,30.85L18.96,30.69L19,30.5L19,29.65L19.01,29.49L19.02,29.23L18.98,29.07L18.88,28.92L18.72,28.79L18.56,28.73L18.3,28.7L18.21,28.7L18.08,28.58L18,28.42L18,27.04L18.2,27L22.96,27L23,27L23,28.42L22.92,28.7L22.86,28.7L22.58,28.73L22.36,28.81L22.21,28.93L22.11,29.08L22.01,29.39L22,29.65L22,30.5L22.04,30.69L22.15,30.85L22.31,30.96L22.5,31L28,31L28.41,30.95L28.78,30.82L29.12,30.62L29.41,30.35L29.66,30.02L29.84,29.64L29.96,29.22L30,28.77L30,13.37L29.96,13.41L29.1,13.99L29,14.04L29,28.77L28.93,29.21L28.72,29.6L28.41,29.89L28.21,29.97L28,30L23,30L23,29.7L23.22,29.66L23.42,29.57L23.73,29.28L23.93,28.87L24,28.42L24,27L23.93,26.59L23.72,26.27L23.39,26.07L22.96,26L18.2,26L17.72,26.07L17.34,26.28L17.09,26.6L17,27L17,28.42L17.08,28.82L17.29,29.2L17.61,29.5L18,29.68L18,30L12,30L12,29.7L12.22,29.67L12.42,29.58L12.73,29.29L12.93,28.88L13,28.42L13,27L12.93,26.59L12.72,26.27L12.4,26.07L11.98,26L7.213,26L6.727,26.07L6.343,26.28L6.091,26.6L6,27L6,28.42L6.078,28.82L6.291,29.19L6.609,29.5L7,29.68L7,30L2.174,30L1.956,29.97L1.745,29.89L1.369,29.61L1.102,29.22L1.027,29L1,28.77L1,9L0,9zz" fill="#D0D0D0"/>
      <path d="M8.994,11.07L8.223,11.24L7.621,11.52L7.169,11.9L6.849,12.37L6.643,12.93L6.533,13.58L6.5,14.3L6.605,15.35L6.91,16.5L7.395,17.62L7.699,18.14L8.042,18.6L8.034,18.86L7.942,19.09L7.749,19.28L7.439,19.44L5.36,20.17L4.64,20.45L4.092,20.73L3.689,21.03L3.399,21.39L3.195,21.85L3.045,22.44L2.986,22.91L2.979,23.31L3.045,23.72L3.203,24.23L3.31,24.39L3.504,24.52L4.116,24.73L4.961,24.87L5.962,24.95L8.116,25.01L9.952,25L11.8,25.01L13.97,24.95L14.98,24.87L15.83,24.73L16.45,24.52L16.65,24.39L16.75,24.23L16.91,23.72L16.98,23.31L16.97,22.91L16.91,22.44L16.76,21.85L16.56,21.39L16.27,21.03L15.87,20.73L15.32,20.45L14.6,20.17L12.52,19.44L12.21,19.28L12.02,19.09L11.92,18.87L11.92,18.6L12.26,18.14L12.56,17.63L13.05,16.5L13.36,15.36L13.46,14.3L13.43,13.58L13.31,12.93L13.09,12.37L12.76,11.9L12.3,11.52L11.69,11.24L10.91,11.07L9.952,11.01zz" fill-rule="evenodd" fill="#51A3E5"/>
      <path d="M19.18,13.11L19.01,13.4L19.06,13.73L19.31,13.96L19.5,14L20.94,14L20.47,13.72L19.85,13.25L19.57,13L19.5,13zM19.18,15.11L19.01,15.4L19.06,15.73L19.31,15.96L19.5,16L26.5,16L26.82,15.89L26.99,15.6L26.94,15.27L26.69,15.04L26.5,15L26.23,15L26.1,15.03L25,15.1L24.17,15.06L23.79,15L19.5,15zM19.18,17.11L19.01,17.4L19.06,17.73L19.31,17.96L19.5,18L26.5,18L26.82,17.89L26.99,17.6L26.94,17.27L26.69,17.04L26.5,17L19.5,17zM19.18,19.11L19.01,19.4L19.06,19.73L19.31,19.96L19.5,20L26.5,20L26.82,19.89L26.99,19.6L26.94,19.27L26.69,19.04L26.5,19L19.5,19zM19.18,21.11L19.01,21.4L19.06,21.73L19.31,21.96L19.5,22L26.5,22L26.82,21.89L26.99,21.6L26.94,21.27L26.69,21.04L26.5,21L19.5,21zz" fill="#707070"/>
      <path d="M0.733,3.094L0.3516,3.352L0.09434,3.733L0,4.2L0,9L17.16,9L17.06,8.632L16.94,7.828L16.9,7L14,7L14,4.2L13.91,3.733L13.65,3.352L13.27,3.094L12.8,3L1.2,3zz" fill="#4EA17E"/>
    </g>
    <g id="overlay">
      <path d="M25,0c-3.866,0,-7,3.134,-7,7c0,3.866,3.134,7,7,7s7,-3.134,7,-7C32,3.134,28.866,0,25,0zM26,8v4h-2V8h-4V6h4V2h2v4h4v2H26z" fill-rule="evenodd" fill="#4EA17E"/>
      <polygon points="30,6 26,6 26,2 24,2 24,6 20,6 20,8 24,8 24,12 26,12 26,8 30,8" fill-rule="evenodd" fill="#404040" stroke-linejoin="miter"/>
    </g>
  </g>
</svg>
