<?xml version="1.0" encoding="UTF-8"?>
<!DOCTYPE svg PUBLIC "-//W3C//DTD SVG 1.1//EN" "http://www.w3.org/Graphics/SVG/1.1/DTD/svg11.dtd">
<svg version="1.1" id="Layer_1" xmlns="http://www.w3.org/2000/svg" xmlns:xlink="http://www.w3.org/1999/xlink" x="0px" y="0px" width="32px" height="32px" viewBox="0 0 32 32" enable-background="new 0 0 32 32" xml:space="preserve">
  <g id="main">
    <g id="icon">
      <path d="M7.991,0.5506L7.712,0.7098L7.551,0.9891L7.5,1.4L7.5,11L23.98,11L24.38,11.04L24.76,11.16L25.11,11.35L25.41,11.59L25.65,11.89L25.84,12.24L25.96,12.62L26,13.02L26,22.98L25.96,23.38L25.84,23.76L25.65,24.11L25.41,24.41L25.11,24.65L24.76,24.84L24.38,24.96L23.98,25L11.85,25L13.28,26.43L13.53,26.17L14.09,27.24L14.2,27.35L14.17,27.38L15.28,29.5L29.6,29.5L30.01,29.45L30.29,29.29L30.45,29.01L30.5,28.6L30.5,8.8L30.47,8.489L30.39,8.226L30.27,8L30.1,7.8L23.2,0.8998L22.94,0.6896L22.71,0.5686L22.3,0.5L8.4,0.5zz" fill-rule="evenodd" fill="#FFFFFF"/>
      <g>
        <path d="M2.626,12.08L2.3,12.3L2.08,12.63L2,13.02L2,15.7L2.116,15.71L2.419,15.79L2.751,15.96L3.095,16.24L7.126,20.28L7.182,20.28L7.798,20.22L8.23,20.03L8.465,19.75L8.542,19.38L8.515,19.12L8.434,18.93L8.278,18.75L8.038,18.59L7.076,18.18L6.228,17.8L5.91,17.58L5.658,17.35L5.461,17.08L5.321,16.77L5.236,16.42L5.207,16.04L5.249,15.63L5.373,15.27L5.579,14.95L5.865,14.67L6.208,14.45L6.6,14.3L7.04,14.21L7.528,14.17L8.526,14.27L8.996,14.39L9.443,14.55L9.548,14.66L9.553,14.8L9.31,15.47L9.201,15.59L9.041,15.59L8.263,15.34L7.51,15.26L7.025,15.32L6.667,15.48L6.466,15.72L6.399,16.05L6.425,16.31L6.5,16.51L6.642,16.68L6.862,16.84L7.756,17.23L8.688,17.63L9.026,17.85L9.283,18.07L9.479,18.33L9.619,18.62L9.703,18.95L9.731,19.31L9.685,19.77L9.548,20.17L9.322,20.53L9.008,20.83L8.63,21.06L8.191,21.22L8.091,21.24L10.85,24L23.98,24L24.37,23.92L24.7,23.7L24.92,23.37L25,22.98L25,13.02L24.92,12.63L24.7,12.3L24.37,12.08L23.98,12L3.025,12zM14.37,14.23L15.01,14.41L15.57,14.71L16.05,15.14L16.42,15.66L16.69,16.27L16.85,16.97L16.91,17.76L16.87,18.39L16.77,18.97L16.6,19.5L16.36,19.97L16.1,20.32L15.81,20.63L15.47,20.88L15.09,21.08L16.47,22.49L16.52,22.58L16.51,22.69L16.43,22.78L16.32,22.8L15.19,22.8L15.04,22.75L13.8,21.37L13.64,21.4L13.64,21.4L12.9,21.34L12.24,21.15L11.68,20.84L11.2,20.42L10.83,19.9L10.56,19.27L10.4,18.56L10.35,17.75L10.4,16.96L10.56,16.25L10.83,15.64L11.21,15.12L11.68,14.7L12.25,14.41L12.9,14.23L13.64,14.17zM18.97,14.3L19.08,14.34L19.1,14.47L19.1,20.2L21.92,20.2L22.1,20.24L22.17,20.3L22.2,20.37L22.2,21.06L22.2,21.06L22.17,21.13L22.1,21.17L21.92,21.2L18.19,21.2L18.01,21.17L17.93,21.13L17.9,21.06L17.9,14.47L17.93,14.4L18.01,14.34L18.19,14.3zM13.16,15.29L12.75,15.4L12.4,15.6L12.11,15.87L11.88,16.23L11.71,16.66L11.61,17.17L11.58,17.76L11.61,18.35L11.71,18.87L11.88,19.3L12.11,19.66L12.4,19.93L12.75,20.13L13.16,20.24L13.63,20.28L14.11,20.24L14.52,20.13L14.87,19.94L15.16,19.67L15.38,19.31L15.55,18.87L15.64,18.35L15.68,17.76L15.64,17.17L15.55,16.66L15.38,16.22L15.16,15.86L14.87,15.59L14.53,15.4L14.12,15.29L13.64,15.25zz" fill="#3E79B4"/>
        <path d="M12.9,14.23L12.25,14.41L11.68,14.7L11.21,15.12L10.83,15.64L10.56,16.25L10.4,16.96L10.35,17.75L10.4,18.56L10.56,19.27L10.83,19.9L11.2,20.42L11.68,20.84L12.24,21.15L12.9,21.34L13.64,21.4L13.64,21.4L13.8,21.37L15.04,22.75L15.19,22.8L16.32,22.8L16.43,22.78L16.51,22.69L16.52,22.58L16.47,22.49L15.09,21.08L15.47,20.88L15.81,20.63L16.1,20.32L16.36,19.97L16.6,19.5L16.77,18.97L16.87,18.39L16.91,17.76L16.85,16.97L16.69,16.27L16.42,15.66L16.05,15.14L15.57,14.71L15.01,14.41L14.37,14.23L13.64,14.17zM7.04,14.21L6.6,14.3L6.208,14.45L5.865,14.67L5.579,14.95L5.373,15.27L5.249,15.63L5.207,16.04L5.236,16.42L5.321,16.77L5.461,17.08L5.658,17.35L5.91,17.58L6.228,17.8L7.076,18.18L8.038,18.59L8.278,18.75L8.434,18.93L8.515,19.12L8.542,19.38L8.465,19.75L8.23,20.03L7.798,20.22L7.182,20.28L7.126,20.28L8.091,21.24L8.191,21.22L8.63,21.06L9.008,20.83L9.322,20.53L9.548,20.17L9.685,19.77L9.731,19.31L9.703,18.95L9.619,18.62L9.479,18.33L9.283,18.07L9.027,17.85L8.688,17.63L7.756,17.23L6.862,16.84L6.642,16.68L6.5,16.51L6.425,16.31L6.399,16.05L6.466,15.72L6.667,15.48L7.025,15.32L7.51,15.26L8.263,15.34L9.041,15.59L9.201,15.59L9.31,15.47L9.553,14.8L9.548,14.66L9.443,14.55L8.996,14.39L8.526,14.27L7.528,14.17zM18.01,14.34L17.93,14.4L17.9,14.47L17.9,21.06L17.93,21.13L18.01,21.17L18.19,21.2L21.92,21.2L22.1,21.17L22.17,21.13L22.2,21.06L22.2,20.37L22.17,20.3L22.1,20.24L21.92,20.2L19.1,20.2L19.1,14.47L19.08,14.34L18.97,14.3L18.19,14.3zM14.12,15.29L14.53,15.4L14.87,15.59L15.16,15.86L15.38,16.22L15.55,16.66L15.64,17.17L15.68,17.76L15.64,18.35L15.55,18.87L15.38,19.31L15.16,19.67L14.87,19.94L14.52,20.13L14.11,20.24L13.63,20.28L13.16,20.24L12.75,20.13L12.4,19.93L12.11,19.66L11.88,19.3L11.71,18.87L11.61,18.35L11.58,17.76L11.61,17.17L11.71,16.66L11.88,16.23L12.11,15.87L12.4,15.6L12.75,15.4L13.16,15.29L13.64,15.25zz" fill="#FFFFFF"/>
      </g>
      <path d="M22,7.567L22.03,7.819L22.11,8.054L22.38,8.461L22.76,8.768L23.18,8.953L23.39,9L30.2,9L30.2,8L23.49,8L23.2,7.855L23.06,7.718L23,7.567L23,0.8L22,0.8zz" fill="#6D6E71"/>
      <path d="M8.077,0.02266L7.795,0.09004L7.554,0.2016L7.356,0.3564L7.202,0.5545L7.09,0.7949L7.023,1.077L7,1.4L7,11L8,11L8,1.4L8.012,1.185L8.064,1.064L8.185,1.012L8.4,1L22.3,1L22.54,1.039L22.85,1.253L29.75,8.154L29.93,8.412L30,8.8L30,28.6L29.99,28.82L29.94,28.94L29.82,28.99L29.6,29L15.02,29L15.54,30L29.6,30L29.92,29.98L30.21,29.91L30.45,29.8L30.64,29.64L30.8,29.45L30.91,29.21L30.98,28.92L31,28.6L31,8.8L30.97,8.409L30.87,8.056L30.7,7.738L30.45,7.446L23.55,0.5463L23.27,0.3059L22.97,0.1354L22.64,0.03359L22.3,0L8.4,0zz" fill="#6D6E71"/>
    </g>
    <g id="overlay">
      <path d="M10.6609,29.4714L1.641,20.4514l2.1233,-2.1233l9.0199,9.0199L10.6609,29.4714zM0.2644,19.0748c-0.3525,-0.3525,-0.3525,-0.7113,0,-1.0638l1.0596,-1.0596c0.3525,-0.3525,0.7113,-0.3525,1.0638,0l0.8743,0.8743l-2.1202,2.1388L0.2644,19.0748zM14.9899,31.9819l-3.8361,-2.0176l2.1233,-2.1233l2.0176,3.8361c0.0321,0.061,0.0207,0.1358,-0.028,0.1846l-0.0923,0.0923C15.1257,32.0026,15.0509,32.014,14.9899,31.9819z" fill-rule="evenodd" fill="#3E79B4"/>
    </g>
  </g>
</svg>
