<?xml version="1.0" encoding="UTF-8"?>
<!DOCTYPE svg PUBLIC "-//W3C//DTD SVG 1.1//EN" "http://www.w3.org/Graphics/SVG/1.1/DTD/svg11.dtd">
<svg version="1.1" id="Layer_1" xmlns="http://www.w3.org/2000/svg" xmlns:xlink="http://www.w3.org/1999/xlink" x="0px" y="0px" width="32px" height="32px" viewBox="0 0 32 32" enable-background="new 0 0 32 32" xml:space="preserve">
  <g id="main">
    <g id="icon">
      <path d="M0.5,29L0.5393,29.19L0.6465,29.35L0.8055,29.46L1,29.5L28,29.5L28.19,29.46L28.35,29.35L28.46,29.19L28.5,29L28.5,14.29L28.16,14.46L27.16,14.81L26.1,15.03L25,15.1L24.17,15.06L23.37,14.94L22.59,14.74L21.85,14.46L21.14,14.12L20.47,13.72L19.85,13.25L19.27,12.73L18.75,12.15L18.28,11.53L17.88,10.86L17.54,10.15L17.3,9.5L0.5,9.5zz" fill="#404040"/>
      <path d="M0,29L0.07871,29.39L0.2932,29.71L0.6111,29.92L1,30L28,30L28.39,29.92L28.71,29.71L28.92,29.39L29,29L29,14.04L28.16,14.46L28,14.52L28,29L1,29L1,10L17.48,10L17.26,9.409L17.16,9L0,9zz" fill="#D0D0D0"/>
      <path d="M1.118,5.029L0.8551,5.11L0.6172,5.239L0.41,5.41L0.2391,5.617L0.11,5.855L0.02852,6.118L0,6.4L0,10L17.48,10L17.26,9.409L17.06,8.632L16.94,7.828L16.9,7L16.97,5.899L17.16,5L1.4,5zz" fill="#51A3E5"/>
      <path d="M7,14L1,14L1,15L7,15L7,19L1,19L1,20L7,20L7,24L1,24L1,25L7,25L7,29L8,29L8,25L14,25L14,29L15,29L15,25L21,25L21,29L22,29L22,25L28,25L28,24L22,24L22,20L28,20L28,19L22,19L22,15L23.79,15L23.37,14.94L22.59,14.74L21.85,14.46L21.14,14.12L20.94,14L15,14L15,10L14,10L14,14L8,14L8,10L7,10zM27.16,14.81L26.23,15L28,15L28,14.52zM14,15L14,19L8,19L8,15zM21,15L21,19L15,19L15,15zM14,20L14,24L8,24L8,20zM21,20L21,24L15,24L15,20zz" fill="#707070"/>
    </g>
    <g id="overlay">
      <path d="M25,0c-3.866,0,-7,3.134,-7,7c0,3.866,3.134,7,7,7s7,-3.134,7,-7C32,3.134,28.866,0,25,0zM26,8v4h-2V8h-4V6h4V2h2v4h4v2H26z" fill-rule="evenodd" fill="#4EA17E"/>
      <polygon points="30,6 26,6 26,2 24,2 24,6 20,6 20,8 24,8 24,12 26,12 26,8 30,8" fill-rule="evenodd" fill="#404040" stroke-linejoin="miter"/>
    </g>
  </g>
</svg>
