<?xml version="1.0" encoding="UTF-8"?>
<!DOCTYPE svg PUBLIC "-//W3C//DTD SVG 1.1//EN" "http://www.w3.org/Graphics/SVG/1.1/DTD/svg11.dtd">
<svg version="1.1" id="Layer_1" xmlns="http://www.w3.org/2000/svg" xmlns:xlink="http://www.w3.org/1999/xlink" x="0px" y="0px" width="32px" height="32px" viewBox="0 0 32 32" enable-background="new 0 0 32 32" xml:space="preserve">
  <g id="main">
    <g id="icon">
      <path d="M0.5,29L0.5393,29.19L0.6465,29.35L0.8055,29.46L1,29.5L28,29.5L28.19,29.46L28.35,29.35L28.46,29.19L28.5,29L28.5,9.5L26.04,9.5L22.26,13.28L22.51,13.53L21.45,14.09L21.34,14.2L21.31,14.17L17.48,16.18L17.21,16.28L16.94,16.31L16.49,16.23L16.12,15.97L16.03,15.88L15.81,15.58L15.7,15.24L15.7,14.88L15.82,14.52L17.83,10.69L17.8,10.66L17.91,10.55L18.46,9.5L0.5,9.5zM18.72,9.74L18.96,9.5L18.48,9.5zz" fill="#FFFFFF"/>
      <path d="M0,29L0.07871,29.39L0.2932,29.71L0.6111,29.92L1,30L28,30L28.39,29.92L28.71,29.71L28.92,29.39L29,29L29,9L26.54,9L25.54,10L28,10L28,29L1,29L1,10L18.2,10L18.47,9.487L18.72,9.74L19.46,9L0,9zz" fill="#6D6E71"/>
      <path d="M1.118,5.029L0.8551,5.11L0.6172,5.239L0.41,5.41L0.2391,5.617L0.11,5.855L0.02852,6.118L0,6.4L0,10L18.2,10L18.47,9.487L18.72,9.74L23.46,5L1.4,5zM25.54,10L29,10L29,6.538zz" fill="#3E79B4"/>
      <path d="M7,14L1,14L1,15L7,15L7,19L1,19L1,20L7,20L7,24L1,24L1,25L7,25L7,29L8,29L8,25L14,25L14,29L15,29L15,25L21,25L21,29L22,29L22,25L28,25L28,24L22,24L22,20L28,20L28,19L22,19L22,15L28,15L28,14L22,14L22,13.8L21.45,14.09L21.34,14.2L21.31,14.17L19.72,15L21,15L21,19L15,19L15,15L15.7,15L15.7,14.88L15.82,14.52L16.1,14L15,14L15,10L14,10L14,14L8,14L8,10L7,10zM14,15L14,19L8,19L8,15zM14,20L14,24L8,24L8,20zM21,20L21,24L15,24L15,20zz" fill="#B4B4B5"/>
    </g>
    <g id="overlay">
      <path d="M19.2158,10.6609l9.0199,-9.0199l2.1233,2.1233l-9.0199,9.0199L19.2158,10.6609zM29.6123,0.2644c0.3525,-0.3525,0.7113,-0.3525,1.0638,0l1.0596,1.0596c0.3525,0.3525,0.3525,0.7113,0,1.0638l-0.8743,0.8743l-2.1388,-2.1202L29.6123,0.2644zM16.7052,14.9899l2.0176,-3.8361l2.1233,2.1233l-3.8361,2.0176c-0.061,0.0321,-0.1358,0.0207,-0.1846,-0.028l-0.0923,-0.0923C16.6845,15.1257,16.6732,15.0509,16.7052,14.9899z" fill-rule="evenodd" fill="#3498DB"/>
    </g>
  </g>
</svg>
