<?xml version="1.0" encoding="UTF-8"?>
<!DOCTYPE svg PUBLIC "-//W3C//DTD SVG 1.1//EN" "http://www.w3.org/Graphics/SVG/1.1/DTD/svg11.dtd">
<svg version="1.1" id="Layer_1" xmlns="http://www.w3.org/2000/svg" xmlns:xlink="http://www.w3.org/1999/xlink" x="0px" y="0px" width="32px" height="32px" viewBox="0 0 32 32" enable-background="new 0 0 32 32" xml:space="preserve">
  <g id="main">
    <g id="icon">
      <path d="M1.6,12L28.7,12L28.7,10L1.7,10zz" fill-rule="evenodd" fill="#51A3E5"/>
      <path d="M2,20L19.43,20L19.45,19.97L20.08,19.25L20.64,18.72L21.24,18.26L21.67,18L1.6,18zz" fill-rule="evenodd" fill="#51A3E5"/>
      <path d="M16.53,2.697L16.96,4.061L17.45,5.812L17.95,7.86L18.38,10.11L18.68,12.48L18.77,13.67L18.8,14.86L18.77,16.03L18.68,17.2L18.38,19.56L17.95,21.82L17.45,23.91L16.96,25.7L16.53,27.11L16.11,28.35L18,28.35L18,26.22L18.07,24.22L18.14,23.1L18.22,22.46L18.53,21.58L18.94,20.75L19.45,19.97L20.08,19.25L20.64,18.72L20.81,18.59L20.98,17.3L21.06,16.13L21.09,14.98L21.06,13.78L20.98,12.57L20.67,10.19L20.24,7.92L19.75,5.855L19.25,4.087L18.82,2.71L18.4,1.496L16.11,1.496zz" fill-rule="evenodd" fill="#51A3E5"/>
      <path d="M11.33,2.71L10.89,4.087L10.38,5.855L9.875,7.92L9.432,10.19L9.119,12.57L9.031,13.78L9,14.98L9.031,16.13L9.119,17.3L9.432,19.64L9.875,21.88L10.38,23.95L10.89,25.72L11.33,27.12L11.77,28.35L13.93,28.35L13.51,27.11L13.08,25.7L12.58,23.91L12.09,21.82L11.66,19.56L11.35,17.2L11.27,16.03L11.24,14.86L11.27,13.67L11.35,12.48L11.66,10.11L12.09,7.86L12.58,5.812L13.08,4.061L13.51,2.697L13.93,1.496L11.77,1.496zz" fill-rule="evenodd" fill="#51A3E5"/>
      <path d="M13.48,0.1273L12,0.3541L10.57,0.7229L9.196,1.226L7.89,1.856L6.658,2.605L5.507,3.467L4.446,4.432L3.48,5.493L2.62,6.644L1.87,7.876L1.24,9.182L0.7369,10.55L0.3682,11.99L0.1412,13.47L0.06406,14.99L0.1412,16.52L0.3682,18L0.7369,19.43L1.24,20.8L1.87,22.11L2.62,23.34L3.48,24.49L4.446,25.55L5.507,26.52L6.658,27.38L7.89,28.13L9.196,28.76L10.57,29.26L12,29.63L13.48,29.86L15.01,29.94L16.53,29.86L18,29.63L18,27.01L17.5,27.14L16.27,27.33L15.01,27.39L13.74,27.33L12.51,27.14L11.32,26.83L10.19,26.41L9.103,25.89L8.081,25.27L7.126,24.56L6.246,23.76L5.445,22.87L4.731,21.92L4.109,20.9L3.586,19.81L3.169,18.68L2.863,17.49L2.675,16.26L2.611,14.99L2.675,13.73L2.863,12.5L3.169,11.31L3.586,10.17L4.109,9.089L4.731,8.067L5.445,7.112L6.246,6.232L7.126,5.431L8.081,4.717L9.103,4.095L10.19,3.572L11.32,3.155L12.51,2.849L13.74,2.661L15.01,2.597L16.27,2.661L17.5,2.849L18.69,3.155L19.83,3.572L20.91,4.095L21.93,4.717L22.89,5.431L23.77,6.232L24.57,7.112L25.28,8.067L25.91,9.089L26.43,10.17L26.85,11.31L27.15,12.5L27.34,13.73L27.4,14.99L27.34,16.26L27.2,17.17L27.34,17.2L28.24,17.5L29.1,17.91L29.1,17.22L29.13,16.98L29.2,16.75L29.46,16.36L29.86,16.1L29.89,16.09L29.95,14.99L29.87,13.47L29.65,11.99L29.28,10.55L28.77,9.182L28.14,7.876L27.39,6.644L26.53,5.493L25.57,4.432L24.51,3.467L23.36,2.605L22.12,1.856L20.82,1.226L19.45,0.7229L18.01,0.3541L16.53,0.1273L15.01,0.05zz" fill="#51A3E5"/>
    </g>
    <g id="overlay">
      <path d="M19.4007,23c-0.1457,0,-0.2535,-0.1384,-0.2147,-0.2789c0.2842,-1.03,0.8194,-1.9666,1.607,-2.7764c1.2499,-1.2852,2.9322,-1.9929,4.7372,-1.9929c1.5085,0,3.1107,0.6663,4.3605,1.6541l0.2337,0.1847v-2.5681c0,-0.1978,0.2392,-0.2969,0.3791,-0.157l1.4314,1.4314c0.0416,0.0416,0.065,0.0981,0.065,0.157v4.124c0,0.1226,-0.0994,0.2221,-0.2221,0.2221h-4.3014c-0.0583,0,-0.1142,-0.0229,-0.1557,-0.0638l-1.4541,-1.3952c-0.1419,-0.1396,-0.0427,-0.3809,0.1563,-0.3804l2.3129,0.0066l-0.5933,-0.4092c-0.0051,-0.0035,-0.0104,-0.0069,-0.0158,-0.0101c-0.676,-0.3981,-1.4506,-0.6085,-2.2408,-0.6085c-1.2076,0,-2.3382,0.488,-3.1835,1.374c-0.395,0.414,-0.6933,0.8498,-0.8968,1.35c-0.0337,0.0829,-0.1151,0.1365,-0.2046,0.1365H19.4007zM31.5993,26c0.1457,0,0.2535,0.1384,0.2147,0.2789c-0.2842,1.03,-0.8194,2.002,-1.607,2.8118c-1.2499,1.2852,-2.9322,1.9929,-4.7372,1.9929c-1.5085,0,-3.1107,-0.6664,-4.3605,-1.6541l-0.2337,-0.1847v2.5327c0,0.1978,-0.2392,0.2969,-0.3791,0.157l-1.4314,-1.4314c-0.0416,-0.0416,-0.065,-0.0981,-0.065,-0.157v-4.124c0,-0.1226,0.0994,-0.2221,0.2221,-0.2221h4.3014c0.0583,0,0.1142,0.0229,0.1557,0.0638l1.4541,1.4306c0.1419,0.1396,0.0427,0.3809,-0.1563,0.3804l-2.3129,-0.0066l0.5933,0.4092c0.0051,0.0035,0.0104,0.0069,0.0158,0.0101c0.676,0.3981,1.4506,0.6085,2.2408,0.6085c1.2076,0,2.3382,-0.488,3.1835,-1.374c0.395,-0.414,0.6933,-0.8852,0.8968,-1.3854c0.0337,-0.0829,0.1151,-0.1365,0.2046,-0.1365H31.5993z" fill="#6CC2DD"/>
    </g>
  </g>
</svg>
