<?xml version="1.0" encoding="UTF-8"?>
<!DOCTYPE svg PUBLIC "-//W3C//DTD SVG 1.1//EN" "http://www.w3.org/Graphics/SVG/1.1/DTD/svg11.dtd">
<svg version="1.1" id="Layer_1" xmlns="http://www.w3.org/2000/svg" xmlns:xlink="http://www.w3.org/1999/xlink" x="0px" y="0px" width="32px" height="32px" viewBox="0 0 32 32" enable-background="new 0 0 32 32" xml:space="preserve">
  <g id="icon">
    <path d="M30.5748,26.2199L17.9813,3.2429c-0.9058,-1.6523,-3.1406,-1.6541,-4.0464,-0.0018L1.3414,26.2208C0.4257,27.8915,1.553,30,3.3646,30h25.187C30.3633,30,31.4906,27.8906,30.5748,26.2199zM18,25.6c0,0.22,-0.18,0.4,-0.4,0.4h-3.2c-0.22,0,-0.4,-0.18,-0.4,-0.4v-2.2c0,-0.22,0.18,-0.4,0.4,-0.4h3.2c0.22,0,0.4,0.18,0.4,0.4V25.6zM18,20.6c0,0.22,-0.18,0.4,-0.4,0.4h-3.2c-0.22,0,-0.4,-0.18,-0.4,-0.4V10.4c0,-0.22,0.18,-0.4,0.4,-0.4h3.2c0.22,0,0.4,0.18,0.4,0.4V20.6z" fill="#AD3E2F"/>
  </g>
</svg>
