<?xml version="1.0" encoding="UTF-8"?>
<!DOCTYPE svg PUBLIC "-//W3C//DTD SVG 1.1//EN" "http://www.w3.org/Graphics/SVG/1.1/DTD/svg11.dtd">
<svg version="1.1" id="Layer_1" xmlns="http://www.w3.org/2000/svg" xmlns:xlink="http://www.w3.org/1999/xlink" x="0px" y="0px" width="32px" height="32px" viewBox="0 0 32 32" enable-background="new 0 0 32 32" xml:space="preserve">
  <g id="icon">
    <path d="M14.4,13.6c1.4,0.7,2.9,1.4,4.4,2.2c-1.2,0.7,-2.9,1.4,-4.4,2.2V13.6zM32,16c0,8.8,-7.2,16,-16,16S0,24.8,0,16S7.2,0,16,0S32,7.2,32,16zM24.4,14.3c-0.1,-0.8,-0.1,-2,-0.7,-2.9c-0.3,-0.3,-0.8,-0.6,-1.3,-0.7c-0.7,-0.1,-3.5,-0.2,-6.3,-0.2c-2.9,0,-5.7,0.1,-6.3,0.2c-0.4,0.1,-0.8,0.3,-1.1,0.5c-0.7,0.6,-0.7,1.6,-0.8,2.5c-0.1,1.5,-0.1,2.9,0,4.6c0,0.7,0.1,1,0.2,1.4c0.1,0.5,0.3,0.8,0.5,1c0.3,0.3,0.7,0.5,1.1,0.6c0.7,0.1,1.8,0.1,4.9,0.2c2.6,0.1,5,0,7.7,-0.2c0.5,-0.1,0.9,-0.3,1.2,-0.6c0.2,-0.2,0.4,-0.4,0.5,-0.7c0.2,-0.5,0.3,-1,0.4,-2.4C24.4,17.1,24.4,14.7,24.4,14.3z" fill="#CD4C32"/>
    <path d="M14.6,21.5c-3.1,-0.1,-4.2,-0.1,-4.9,-0.2c-0.4,-0.1,-0.8,-0.3,-1.1,-0.6c-0.2,-0.2,-0.4,-0.5,-0.5,-1c-0.1,-0.4,-0.2,-0.7,-0.2,-1.4c-0.1,-1.7,-0.1,-3.1,0,-4.6c0.1,-0.9,0.1,-1.9,0.8,-2.5c0.3,-0.2,0.7,-0.4,1.1,-0.5c0.6,-0.1,3.4,-0.2,6.3,-0.2c2.8,0,5.6,0.1,6.3,0.2c0.5,0.1,1,0.4,1.3,0.7c0.6,0.9,0.6,2.1,0.7,2.9c0,0.4,0,2.8,0,3.3c-0.1,1.4,-0.2,1.9,-0.4,2.4c-0.1,0.3,-0.3,0.5,-0.5,0.7c-0.3,0.3,-0.7,0.5,-1.2,0.6C19.6,21.5,17.2,21.6,14.6,21.5L14.6,21.5zM18.8,15.8c-1.5,-0.8,-3,-1.5,-4.4,-2.2v4.4C15.9,17.2,17.6,16.5,18.8,15.8L18.8,15.8L18.8,15.8z" fill="#FFFFFF"/>
  </g>
</svg>
